<?xml version="1.0" standalone="no"?>
<!DOCTYPE svg PUBLIC "-//W3C//DTD SVG 20010904//EN"
 "http://www.w3.org/TR/2001/REC-SVG-20010904/DTD/svg10.dtd">
<svg version="1.0" xmlns="http://www.w3.org/2000/svg"
 width="49.215172pt" height="23.020000pt" viewBox="0 0 49.215172 23.020000"
 preserveAspectRatio="xMidYMid meet">
<metadata>
Created by potrace 1.13, written by Peter Selinger 2001-2015
</metadata>
<g transform="translate(0.000000,23.020000) scale(0.026460,-0.026460)"
fill="#000000" stroke="none">
<path d="M197 422 c-24 -26 -25 -227 -1 -260 l15 -22 719 0 719 0 15 22 c12
17 16 49 16 134 0 95 -3 113 -18 127 -17 16 -82 17 -734 17 -680 0 -716 -1
-731 -18z m571 -68 c4 -25 -97 -124 -127 -124 -18 0 -19 3 -10 28 14 36 100
123 119 120 8 -2 16 -12 18 -24z m252 -14 c0 -5 -7 -10 -16 -10 -8 0 -12 5 -9
10 3 6 10 10 16 10 5 0 9 -4 9 -10z m-122 -38 c3 -29 0 -35 -27 -45 -22 -8
-31 -18 -31 -34 0 -13 -4 -23 -10 -23 -6 0 -10 30 -10 71 l0 70 38 -3 c34 -3
37 -6 40 -36z m282 13 c0 -8 8 -15 18 -15 16 -1 16 -1 0 -14 -22 -16 -24 -66
-3 -66 8 0 15 -5 15 -11 0 -6 -10 -9 -22 -7 -18 2 -24 11 -26 38 -2 19 -8 41
-14 47 -7 9 -7 13 1 13 6 0 11 7 11 15 0 8 5 15 10 15 6 0 10 -7 10 -15z
m-212 -26 c-12 -7 -18 -22 -18 -49 0 -22 -4 -40 -10 -40 -5 0 -10 23 -10 50 0
48 1 50 28 50 23 -1 24 -2 10 -11z m52 -39 c0 -27 -4 -50 -10 -50 -5 0 -10 23
-10 50 0 28 5 50 10 50 6 0 10 -22 10 -50z m102 37 c11 -18 10 -87 -2 -87 -5
0 -10 18 -10 40 0 33 -4 40 -19 40 -21 0 -31 -19 -31 -56 0 -13 -4 -24 -10
-24 -5 0 -10 22 -10 48 l0 49 37 1 c20 1 41 -4 45 -11z"/>
<path d="M732 349 c2 -6 8 -10 13 -10 5 0 11 4 13 10 2 6 -4 11 -13 11 -9 0
-15 -5 -13 -11z"/>
<path d="M677 300 c-62 -68 -37 -78 27 -11 21 22 27 34 19 42 -7 7 -21 -3 -46
-31z"/>
<path d="M840 294 c0 -33 33 -30 38 4 3 17 -2 22 -17 22 -16 0 -21 -6 -21 -26z"/>
<path d="M0 289 c1 -129 2 -142 15 -125 22 29 21 238 0 256 -13 11 -15 -5 -15
-131z"/>
</g>
</svg>
