<?xml version="1.0" standalone="no"?>
<!DOCTYPE svg PUBLIC "-//W3C//DTD SVG 20010904//EN"
 "http://www.w3.org/TR/2001/REC-SVG-20010904/DTD/svg10.dtd">
<svg version="1.0" xmlns="http://www.w3.org/2000/svg"
 width="181.501495pt" height="113.240000pt" viewBox="0 0 181.501495 113.240000"
 preserveAspectRatio="xMidYMid meet">
<metadata>
Created by potrace 1.16, written by Peter Selinger 2001-2019
</metadata>
<g transform="translate(0.000000,113.240000) scale(0.026458,-0.026458)"
fill="#000000" stroke="none">
<path d="M5759 4179 c-6 -12 -9 -33 -6 -46 3 -19 -4 -35 -30 -64 -20 -22 -39
-39 -44 -39 -12 0 -11 57 1 65 17 10 12 72 -6 79 -61 23 -104 -54 -50 -89 31
-21 42 -82 19 -107 -9 -11 -30 -18 -50 -18 -44 0 -88 -23 -139 -71 -40 -39
-40 -40 -59 -19 -28 31 -77 26 -114 -10 -49 -49 -91 -190 -91 -306 0 -39 -2
-42 -32 -47 -18 -2 -34 -4 -35 -3 -1 0 10 39 24 86 15 50 27 122 30 175 5 89
-8 200 -27 219 -6 6 -42 -24 -98 -81 -94 -95 -153 -191 -167 -272 -5 -32 -11
-41 -27 -41 -18 0 -19 4 -12 58 4 31 7 77 7 101 -2 62 -33 181 -47 181 -14 0
-89 -112 -117 -175 -11 -25 -23 -64 -27 -87 -7 -38 -10 -42 -54 -55 -27 -8
-56 -25 -71 -42 -15 -18 -43 -34 -79 -45 -33 -9 -72 -31 -99 -54 -24 -21 -65
-50 -91 -65 -71 -41 -103 -89 -102 -151 0 -28 8 -66 18 -84 l17 -33 -28 7
c-51 11 -53 12 -53 56 0 24 -5 63 -11 86 -14 61 -71 193 -83 189 -12 -4 -81
-162 -112 -255 -15 -44 -24 -96 -24 -132 0 -33 -2 -60 -5 -60 -3 0 -24 20 -48
44 -38 39 -130 87 -142 74 -3 -3 -11 -44 -17 -91 -8 -63 -9 -101 -1 -144 10
-49 9 -60 -4 -68 -116 -76 -135 -110 -141 -254 -3 -64 0 -119 8 -143 10 -34 6
-127 -5 -116 -2 2 -11 84 -20 183 -9 99 -21 209 -28 245 -12 64 -12 65 15 90
44 40 43 127 -2 171 l-30 30 46 111 c91 223 247 470 392 620 80 83 92 115 25
65 -56 -41 -192 -215 -279 -358 -59 -96 -176 -336 -195 -399 l-11 -35 -68 0
c-65 0 -69 1 -75 25 -12 49 -132 287 -195 385 -118 187 -267 365 -304 365 -26
0 -18 -17 24 -50 122 -96 361 -469 445 -692 l17 -47 -26 -31 c-37 -44 -37
-116 0 -153 24 -24 25 -31 19 -77 -4 -27 -9 -50 -12 -50 -2 0 -104 100 -226
223 -337 337 -552 520 -821 699 -184 122 -459 259 -646 322 -354 118 -716 139
-899 50 -70 -34 -170 -129 -200 -190 -76 -152 -65 -340 28 -464 l39 -52 0
-102 c-2 -207 76 -367 222 -457 47 -29 47 -30 43 -73 -8 -63 14 -175 48 -246
34 -72 122 -168 183 -201 37 -19 45 -29 50 -61 20 -127 95 -223 218 -281 112
-53 162 -62 356 -62 94 0 172 0 172 0 0 -1 -42 -22 -92 -48 -215 -109 -341
-247 -414 -452 -11 -32 -19 -90 -22 -161 -4 -104 -2 -116 27 -202 18 -51 36
-131 42 -178 17 -150 66 -254 162 -340 65 -59 122 -91 205 -118 57 -19 77 -32
137 -92 93 -94 149 -117 290 -117 320 -1 659 226 951 638 52 73 61 87 138 215
27 45 51 78 54 75 3 -3 14 -38 24 -77 29 -113 66 -149 100 -96 17 26 52 121
68 186 9 35 15 42 28 37 9 -4 51 -13 93 -22 l75 -15 0 -57 c-1 -31 2 -65 6
-76 7 -18 -1 -24 -59 -50 -176 -76 -223 -226 -93 -293 59 -31 134 -26 163 9
17 21 18 32 11 89 -12 95 -11 157 4 172 22 22 32 -9 32 -99 0 -87 10 -126 41
-159 10 -11 30 -49 44 -84 36 -91 68 -135 122 -167 44 -26 56 -28 153 -28 58
0 119 4 136 8 30 8 30 7 64 -68 43 -99 106 -185 135 -185 26 0 88 59 122 118
14 23 28 42 33 42 4 0 24 -20 43 -44 34 -40 204 -166 225 -166 20 0 35 143 30
297 l-5 153 36 5 c20 3 49 8 65 10 19 4 52 -7 102 -32 62 -30 88 -37 154 -41
79 -5 80 -4 80 19 0 66 -58 211 -106 269 -24 28 -24 31 -9 59 8 17 15 37 15
46 0 8 6 15 14 15 27 0 69 -45 93 -99 33 -76 58 -101 101 -101 76 0 144 55
146 119 2 82 -72 121 -241 129 l-113 5 -11 41 c-13 48 -71 108 -124 127 -19 7
-35 16 -35 19 0 3 14 16 31 29 25 19 38 21 72 16 61 -10 72 -19 107 -80 44
-77 74 -98 130 -93 53 5 118 44 126 76 19 69 -22 96 -162 107 -50 4 -106 10
-125 14 -32 8 -33 8 -9 14 14 3 63 8 109 10 77 4 86 6 108 31 28 33 29 51 3
93 -23 38 -67 63 -112 63 -28 0 -43 -12 -110 -83 l-77 -82 1 65 c0 36 -2 79
-6 97 l-7 32 73 -1 c110 -1 196 46 229 124 15 37 8 43 -35 28 -19 -6 -66 -11
-103 -11 -37 0 -87 -5 -111 -11 -30 -7 -47 -7 -54 0 -7 7 0 12 24 17 99 22
175 88 218 191 47 113 38 135 -34 82 -24 -18 -73 -49 -107 -68 -35 -19 -86
-57 -113 -83 -48 -46 -52 -47 -81 -35 -53 21 -73 38 -88 76 -47 116 -172 121
-272 10 -46 -51 -47 -51 -59 4 -5 22 0 31 28 53 18 14 61 37 96 51 59 24 65
24 105 11 23 -8 66 -31 94 -50 28 -20 65 -38 82 -42 42 -9 132 3 155 21 18 13
17 16 -26 55 -54 49 -96 69 -147 69 -32 1 -35 2 -19 12 12 6 43 8 85 4 195
-19 196 -19 265 4 64 21 170 83 197 116 24 29 -8 36 -136 30 -156 -6 -203 -17
-364 -83 -73 -29 -138 -52 -143 -51 -6 2 10 19 35 38 25 19 53 48 63 65 21 34
33 185 16 185 -23 0 -119 -82 -140 -119 -12 -21 -28 -69 -36 -107 -20 -96 -21
-97 -73 -119 -26 -11 -51 -21 -55 -23 -4 -2 9 32 29 75 32 68 37 90 41 171 7
146 -2 145 -144 -16 -60 -68 -77 -97 -102 -164 -26 -74 -33 -83 -63 -94 -28
-9 -42 -8 -82 7 -89 35 -169 21 -241 -42 -34 -30 -53 -40 -73 -37 -30 3 -30 4
-6 73 l14 40 82 0 c69 0 91 4 137 27 30 15 73 30 94 34 22 4 49 17 60 30 12
12 26 27 31 34 6 6 29 23 53 38 24 16 58 50 77 77 19 26 50 59 70 72 19 13 42
37 50 53 9 17 18 30 20 30 2 0 19 -9 37 -20 68 -41 167 -34 226 15 17 14 32
25 34 25 3 0 4 -22 4 -48 -1 -30 5 -56 14 -67 27 -33 100 -57 185 -63 133 -8
188 21 236 122 16 34 29 73 29 89 0 26 2 27 49 27 64 0 332 46 377 65 19 8 34
20 34 28 0 8 -51 40 -115 73 -103 52 -115 61 -115 85 l0 27 98 4 c81 3 107 8
153 31 63 30 105 70 94 88 -8 12 -210 8 -250 -6 -47 -16 56 57 134 95 101 50
172 119 224 218 37 69 58 152 40 152 -15 0 -123 -74 -164 -112 -47 -43 -98
-110 -137 -178 -25 -46 -104 -137 -90 -105 2 6 12 28 23 50 24 53 34 195 13
195 -16 0 -74 -59 -108 -110 -13 -19 -24 -36 -26 -38 -1 -2 -18 7 -38 19 -30
17 -45 20 -83 14 -26 -4 -65 -16 -86 -27 -43 -21 -58 -17 -40 11 6 10 17 37
23 60 l11 41 60 0 c193 0 429 120 460 233 6 22 21 54 34 71 50 68 57 157 14
202 -31 33 -19 50 40 57 73 9 170 58 220 112 52 57 53 75 4 75 -61 -1 -114
-17 -160 -49 -24 -17 -43 -28 -43 -25 0 3 11 33 24 67 44 113 49 137 43 218
-5 85 -48 191 -78 197 -32 6 -39 -164 -13 -299 13 -69 14 -94 4 -136 -6 -29
-14 -53 -18 -53 -4 0 -8 25 -9 57 -2 38 -13 78 -34 125 -33 70 -55 85 -64 46
-20 -91 -26 -128 -26 -186 0 -37 1 -71 3 -77 1 -5 -1 -12 -7 -15 -5 -3 -11 7
-13 21 -2 14 -17 54 -35 90 -27 55 -39 67 -79 87 -27 12 -48 27 -48 33 0 5
-12 21 -26 34 -21 19 -38 25 -74 25 -35 0 -52 5 -68 23 -30 32 -10 54 63 68
52 10 59 9 76 -10 24 -26 51 -27 72 -3 43 47 -1 110 -58 84 -14 -6 -25 -18
-25 -26 0 -13 -77 -33 -88 -22 -2 3 8 20 23 38 19 23 39 35 63 38 44 6 69 42
58 83 -6 24 -11 27 -46 27 -30 0 -42 -5 -51 -21z m451 -146 c18 -65 23 -139
12 -159 -10 -16 -12 -12 -13 26 l-2 45 -6 -40 -6 -40 -8 34 c-10 49 -9 171 3
171 5 0 14 -17 20 -37z m-5273 1 c8 -22 -22 -44 -59 -44 -36 0 -49 27 -23 46
26 19 74 18 82 -2z m246 -16 c101 -43 173 -93 261 -180 49 -49 86 -91 83 -94
-8 -8 -424 65 -465 82 -50 21 -81 51 -88 88 -8 44 10 83 48 106 43 26 97 25
161 -2z m-489 -84 c22 -21 20 -46 -5 -78 -24 -31 -64 -34 -79 -7 -16 30 -12
50 15 76 28 29 47 31 69 9z m178 -20 c22 -47 -24 -83 -63 -48 -34 31 -18 74
28 74 15 0 27 -9 35 -26z m4773 -14 c16 -16 37 -30 48 -30 16 0 18 -5 13 -27
l-6 -28 20 27 c15 19 26 25 43 21 52 -13 60 -44 26 -99 -12 -20 -16 -34 -9
-34 6 0 19 13 28 30 19 33 32 39 32 14 0 -13 3 -14 14 -5 22 19 62 -13 86 -66
11 -25 20 -47 20 -49 0 -2 -15 -4 -32 -4 -18 -1 -46 -7 -63 -14 -28 -12 -31
-11 -41 14 -7 17 -23 30 -40 34 -15 4 -41 18 -57 32 -23 20 -36 23 -63 18 -26
-5 -40 -2 -54 11 -13 11 -30 16 -50 13 -23 -3 -34 0 -41 13 -5 10 -18 20 -28
24 -26 8 -36 42 -19 62 26 33 92 73 118 73 16 0 37 -11 55 -30z m-495 -70 c0
-94 -20 -206 -50 -275 -22 -53 -43 -75 -72 -75 -20 0 -19 6 13 150 25 110 89
291 100 284 5 -3 9 -41 9 -84z m-67 8 c-14 -35 -39 -117 -56 -183 -16 -66 -31
-122 -33 -124 -2 -2 -17 8 -34 23 -17 14 -36 26 -42 26 -16 0 0 69 32 135 27
56 132 185 150 185 4 0 -4 -28 -17 -62z m-267 -35 c8 -64 -2 -203 -15 -216
-17 -17 -31 4 -31 44 0 63 22 229 31 229 4 0 11 -25 15 -57z m554 27 c0 -10
-9 -39 -21 -65 -11 -25 -18 -49 -15 -52 3 -3 16 20 30 51 15 33 31 56 40 56
19 0 21 -32 5 -62 -6 -11 -8 -22 -5 -25 3 -3 11 6 17 21 15 31 28 33 57 5 l23
-20 -54 -58 c-51 -56 -89 -119 -103 -175 -9 -39 -21 -31 -16 11 4 30 2 35 -11
30 -11 -4 -17 1 -20 16 -2 12 -5 0 -6 -28 -2 -74 -23 -42 -23 36 0 55 -2 60
-9 34 -6 -16 -8 -45 -5 -62 3 -24 1 -33 -10 -33 -31 0 -12 190 27 275 29 62
99 94 99 45z m-3573 -21 c56 -27 143 -106 143 -130 0 -29 -50 -24 -123 12 -87
44 -137 86 -137 114 0 40 38 41 117 4z m4308 -116 c0 -53 -4 -86 -12 -94 -10
-11 -13 -5 -14 26 -1 22 -5 51 -10 65 -6 17 -7 8 -3 -30 4 -45 3 -52 -7 -36
-13 20 -7 185 7 208 16 25 38 -56 39 -139z m-1346 27 c-10 -58 -18 -106 -19
-108 0 -2 -10 -2 -22 0 -28 4 -33 31 -19 85 11 37 69 139 76 132 1 -2 -6 -51
-16 -109z m-3985 58 c15 -25 -4 -53 -35 -53 -17 0 -25 6 -27 23 -7 46 38 67
62 30z m244 -19 c64 -21 122 -66 122 -92 0 -9 -12 -25 -26 -36 -41 -32 -123
-29 -201 8 -91 43 -108 97 -40 126 44 20 73 18 145 -6z m-420 -31 c30 -30 1
-118 -38 -118 -40 0 -54 76 -20 110 23 23 41 25 58 8z m5002 -23 c10 -12 7
-28 -19 -86 -37 -82 -35 -105 3 -31 49 97 96 133 126 97 17 -21 6 -56 -35
-109 -19 -25 -31 -46 -26 -46 10 0 62 63 80 98 22 42 71 21 71 -31 0 -30 -23
-70 -68 -119 -14 -15 -23 -30 -21 -33 6 -5 44 29 81 74 15 18 32 30 37 27 18
-11 21 -73 6 -122 -23 -78 -83 -139 -252 -257 -72 -50 -88 -50 -56 1 l17 27
-26 -24 c-16 -14 -33 -21 -43 -17 -14 5 -11 13 19 49 47 57 47 79 0 27 -47
-52 -59 -51 -29 3 35 61 31 79 -6 24 -66 -100 -63 -55 4 56 38 63 30 70 -13
11 -31 -43 -34 -45 -47 -28 -17 23 -16 36 1 79 8 19 11 35 6 35 -4 0 -14 -15
-20 -32 l-13 -33 -10 43 c-13 56 8 128 64 211 69 104 136 146 169 106z m750
-30 c-36 -37 -133 -89 -153 -82 -6 2 10 14 36 26 26 13 47 27 47 32 0 5 -12 2
-26 -8 -27 -17 -27 -17 -16 4 14 25 87 63 121 63 25 0 24 -1 -9 -35z m-4609
-58 c139 -46 343 -138 452 -203 409 -245 587 -362 704 -465 72 -63 198 -198
191 -205 -3 -2 -29 6 -59 20 -177 77 -525 173 -1049 286 -359 78 -505 132
-610 227 -94 84 -127 204 -77 285 73 120 205 136 448 55z m-973 -14 c3 -27 -1
-35 -22 -44 -31 -14 -56 2 -56 35 0 30 20 47 50 44 20 -2 26 -9 28 -35z m5186
1 c21 -21 20 -28 -9 -74 -33 -52 -13 -52 21 0 32 49 70 57 60 13 -6 -25 -5
-26 7 -10 8 9 17 17 21 17 14 0 5 -44 -15 -72 -12 -16 -19 -31 -16 -34 3 -3
15 9 27 26 l22 31 24 -22 c30 -29 32 -90 4 -136 -11 -18 -22 -33 -24 -33 -17
0 -36 15 -36 28 0 9 -21 36 -46 59 -35 33 -53 43 -80 43 -34 0 -34 0 -34 48 0
27 -6 57 -15 68 -21 28 -19 33 18 49 42 18 52 18 71 -1z m-1238 -31 c22 -9 77
-20 123 -23 78 -6 86 -9 112 -38 32 -35 37 -57 15 -65 -8 -3 -42 -27 -75 -53
-64 -49 -110 -112 -131 -177 -8 -27 -17 -37 -28 -35 -23 5 -17 46 9 74 14 15
17 24 9 29 -15 9 -22 1 -37 -38 l-11 -32 -1 35 c-1 20 6 62 14 94 9 33 14 60
12 62 -6 7 -25 -67 -37 -141 -12 -76 -14 -80 -29 -70 -14 8 -14 62 0 71 7 4 7
10 1 16 -15 15 -31 1 -25 -22 3 -11 2 -27 -1 -37 -11 -27 -26 -1 -30 52 -2 28
-10 51 -17 54 -8 2 -10 -3 -5 -20 18 -62 19 -89 4 -89 -44 0 -77 234 -43 301
19 36 70 69 106 69 15 0 44 -8 65 -17z m-3626 -26 c76 -38 -20 -99 -166 -105
-84 -4 -94 -2 -114 18 -19 19 -20 24 -7 43 28 43 228 74 287 44z m-440 -27
c22 -22 27 -69 8 -88 -32 -32 -78 6 -78 64 0 46 36 58 70 24z m3843 -109 c4
-50 13 -109 21 -133 8 -23 14 -44 12 -46 -2 -1 -16 -4 -32 -5 -26 -2 -31 3
-47 48 -15 42 -17 44 -13 15 3 -19 8 -45 12 -57 9 -34 -13 -28 -31 7 -15 29
-32 42 -22 18 18 -49 17 -57 -3 -68 -18 -10 -22 -7 -40 32 -23 50 -26 125 -6
171 22 53 81 98 137 106 3 1 9 -39 12 -88z m771 55 c38 -16 66 -50 66 -82 0
-11 11 -43 25 -69 19 -34 24 -56 20 -76 -4 -16 -10 -29 -13 -30 -41 -5 -72
-13 -97 -25 -23 -10 -39 -12 -65 -4 -52 15 -108 12 -169 -9 -48 -17 -57 -17
-88 -5 -42 18 -36 32 44 103 31 28 51 51 45 51 -7 0 -44 -31 -83 -70 -66 -66
-72 -70 -116 -70 l-45 0 6 32 c30 152 329 313 470 254z m674 -66 c22 0 13 -31
-19 -61 -17 -16 -26 -29 -20 -29 7 0 23 12 36 26 26 28 58 29 63 0 5 -24 -30
-60 -101 -103 -32 -19 -56 -38 -53 -40 6 -6 142 72 151 87 9 15 41 12 54 -4 9
-11 9 -22 -2 -48 -29 -70 -159 -155 -279 -183 -72 -17 -213 -20 -203 -5 3 6
21 10 38 11 28 1 29 2 9 8 -21 5 -15 11 47 40 39 19 69 36 67 38 -1 2 -35 -10
-74 -26 -49 -21 -69 -25 -65 -15 6 17 -8 18 -26 2 -11 -11 -13 -10 -7 0 4 6
35 31 69 54 96 64 185 145 214 196 32 56 42 64 68 57 11 -2 26 -5 33 -5z
m-1873 -68 c9 -26 19 -74 22 -108 6 -60 5 -61 -20 -66 -15 -3 -29 -3 -32 0 -9
9 -5 233 4 228 5 -4 16 -27 26 -54z m-2923 25 c13 -21 9 -53 -10 -70 -26 -24
-128 -64 -183 -72 -86 -13 -117 30 -58 79 81 69 225 104 251 63z m3153 -44 c1
-51 7 -79 24 -112 l23 -44 -25 -25 c-30 -30 -46 -26 -83 23 -20 26 -29 51 -32
91 -4 52 -3 55 36 94 22 22 44 40 48 40 5 0 9 -30 9 -67z m-276 -85 l1 -76
-42 -41 c-24 -22 -46 -41 -50 -41 -23 0 -3 91 45 215 30 74 32 78 38 50 4 -16
7 -65 8 -107z m-3322 94 c50 -32 14 -149 -37 -122 -42 22 -25 130 20 130 3 0
10 -4 17 -8z m610 -138 c103 -21 190 -55 260 -101 l58 -37 -83 -8 c-46 -5
-128 -19 -182 -33 -93 -24 -209 -33 -244 -19 -9 3 -25 21 -37 40 -36 58 -8
128 63 159 43 19 72 18 165 -1z m3318 -14 c44 -15 84 -20 168 -20 94 0 115 -3
148 -22 49 -27 49 -38 3 -38 -53 0 -123 -43 -164 -100 -39 -55 -49 -59 -74
-31 -42 46 -181 66 -251 37 l-35 -15 -51 51 -50 50 28 30 c71 75 170 95 278
58z m802 -34 c39 -19 77 -45 83 -57 8 -14 11 -46 7 -85 -6 -79 -46 -154 -107
-202 -25 -20 -60 -49 -77 -66 -36 -33 -42 -29 -17 10 9 13 14 27 11 30 -3 3
-15 -13 -27 -36 -12 -23 -24 -39 -28 -35 -4 4 -10 37 -13 73 l-6 67 -1 -67
c-1 -38 -6 -68 -10 -68 -9 0 -38 111 -48 181 -13 103 35 241 96 271 47 24 55
23 137 -16z m-243 14 l25 -9 -19 -45 c-11 -24 -23 -72 -26 -105 -4 -34 -10
-61 -13 -61 -4 0 -13 15 -19 34 -7 19 -30 50 -52 70 -41 37 -75 92 -62 99 4 3
22 8 40 12 25 5 38 2 54 -12 20 -18 21 -18 14 5 -6 18 -3 22 13 22 11 0 31 -4
45 -10z m-1028 -36 c108 -36 224 -118 224 -158 0 -3 -21 -3 -47 0 -41 5 -54 2
-86 -20 -26 -18 -39 -22 -42 -13 -12 38 -13 38 -14 -4 -1 -55 -11 -68 -28 -37
-11 21 -12 16 -13 -42 0 -82 -13 -70 -39 35 -11 44 -20 69 -20 55 0 -14 6 -50
14 -80 8 -30 13 -56 10 -58 -2 -2 -16 15 -31 37 -28 42 -45 50 -24 11 6 -12 9
-24 7 -27 -9 -8 -47 17 -47 30 0 7 -7 22 -15 33 -14 18 -14 17 -5 -9 15 -42
14 -44 -37 -56 -46 -12 -62 -6 -63 23 0 5 -2 7 -5 4 -3 -3 -1 -16 4 -29 7 -19
4 -31 -15 -54 -20 -25 -26 -28 -34 -15 -16 25 -29 78 -24 102 21 100 24 105
121 192 111 100 130 107 209 80z m-3428 -7 c21 -25 25 -66 8 -92 -32 -49 -76
-17 -76 55 0 41 45 65 68 37z m3074 -45 l51 -49 -18 -26 c-10 -15 -23 -44 -30
-64 -10 -29 -21 -40 -49 -49 -47 -17 -49 -11 -54 104 -6 130 12 121 58 -30 6
-21 14 -38 17 -38 11 0 -9 106 -28 149 -22 51 -22 51 -8 51 6 0 33 -22 61 -48z
m2391 -34 c-29 -55 -121 -155 -162 -177 -29 -16 -26 -10 37 72 24 32 42 60 40
62 -2 3 -26 -25 -53 -60 -27 -36 -53 -65 -57 -65 -26 0 80 135 155 197 72 60
84 52 40 -29z m-1201 22 c21 -6 50 -26 69 -47 39 -45 94 -158 114 -237 9 -33
21 -66 27 -73 6 -7 8 -16 4 -20 -7 -7 -5 -10 -43 44 -17 23 -33 39 -37 36 -3
-4 6 -19 21 -35 15 -15 22 -28 16 -28 -19 0 -129 88 -158 126 -15 19 -29 33
-32 30 -14 -14 66 -95 167 -169 l25 -18 -30 6 c-16 3 -38 8 -47 11 -10 3 -18
1 -18 -4 0 -5 18 -12 40 -16 23 -4 38 -11 35 -16 -16 -25 -181 -1 -270 39 -62
28 -62 29 -70 77 -4 27 -14 69 -22 93 -8 24 -12 54 -9 66 9 36 94 124 129 134
43 12 47 12 89 1z m-3053 -86 c168 -24 284 -52 451 -106 167 -54 470 -168 535
-200 112 -57 245 -148 215 -148 -8 0 -53 6 -100 14 -152 26 -257 30 -800 31
-586 1 -577 0 -658 62 -74 56 -97 183 -49 266 40 68 105 97 215 97 47 0 132
-7 191 -16z m2701 -12 c49 -24 58 -57 37 -138 -21 -79 -13 -118 39 -194 40
-58 54 -121 34 -145 -17 -20 -30 -19 -30 4 0 29 -37 68 -77 82 -20 6 -63 11
-95 11 -32 0 -58 3 -58 7 0 5 27 18 60 30 32 12 62 26 65 31 3 5 -14 1 -39
-10 -26 -11 -46 -17 -46 -15 0 21 38 74 59 83 l26 11 -26 -5 c-24 -5 -26 -3
-21 23 3 15 12 34 21 41 14 12 14 12 -4 8 -15 -5 -25 1 -37 22 l-17 29 36 17
c19 9 33 19 30 22 -3 3 -20 -2 -38 -12 -31 -16 -35 -16 -66 1 -37 20 -40 27
-18 49 25 25 17 31 -10 6 -28 -26 -32 -25 -37 9 -2 20 3 26 32 37 52 19 139
17 180 -4z m1245 -39 c-8 -45 -49 -136 -70 -153 -20 -16 -20 -1 0 47 25 59 16
52 -15 -12 -16 -33 -29 -51 -30 -40 0 43 86 195 111 195 6 0 7 -15 4 -37z
m-5016 1 c38 -48 17 -109 -28 -85 -43 23 -68 92 -38 104 27 12 47 6 66 -19z
m3465 10 c11 -4 13 -11 5 -31 -14 -39 -10 -51 8 -19 14 27 17 28 28 12 14 -19
5 -66 -22 -119 -8 -16 -12 -31 -9 -34 3 -4 18 22 33 55 29 62 36 69 63 52 13
-8 13 -13 -3 -41 -23 -41 -15 -50 9 -10 22 37 24 37 52 8 33 -35 37 -77 13
-124 -31 -62 -74 -98 -151 -129 -74 -29 -101 -26 -61 7 13 11 21 22 17 26 -3
4 -17 -3 -29 -16 -34 -31 -57 -19 -59 33 l-1 41 -4 -37 c-6 -60 -19 -45 -33
38 -13 86 -7 151 20 204 25 49 46 67 107 89 1 1 8 -2 17 -5z m-3084 -34 c11
-6 24 -19 30 -30 29 -54 -82 -122 -154 -94 -42 16 0 97 64 123 33 13 38 13 60
1z m176 -45 c18 -28 11 -60 -16 -75 -43 -23 -84 33 -55 76 20 31 50 31 71 -1z
m4295 6 c23 -18 23 -21 12 -87 -7 -43 -8 -90 -3 -124 13 -83 12 -89 -15 -115
-21 -22 -33 -25 -96 -25 -40 0 -102 7 -138 16 -73 18 -161 59 -161 74 0 6 30
10 67 10 36 0 63 3 60 7 -4 4 -33 6 -65 5 l-57 -1 70 18 c75 19 158 51 152 58
-2 2 -17 -1 -33 -7 -16 -6 -56 -18 -89 -25 -52 -12 -57 -12 -41 0 10 8 24 16
30 18 6 2 8 7 5 11 -4 4 -22 -2 -40 -13 -61 -37 -65 -21 -9 31 66 62 143 112
219 144 69 28 102 30 132 5z m-970 -18 c16 -40 41 -189 37 -221 -3 -26 -5 -25
-41 25 -52 71 -59 100 -40 168 18 61 28 68 44 28z m-963 -24 c6 -50 13 -68 38
-99 l26 -31 -37 -60 c-34 -55 -37 -65 -34 -123 4 -64 4 -64 -42 -113 -25 -27
-49 -55 -52 -63 -4 -11 -15 -5 -42 25 -46 50 -87 136 -83 172 3 27 4 28 83 33
90 6 79 20 -15 20 -32 0 -62 5 -65 10 -4 6 7 10 24 10 17 0 31 5 31 10 0 6
-13 10 -30 10 -23 0 -30 4 -30 20 0 24 36 35 86 25 24 -4 34 -3 29 4 -3 6 -26
11 -50 11 -24 0 -47 5 -50 10 -17 27 76 118 142 142 58 20 67 18 71 -13z m290
-49 c37 -23 66 -80 81 -162 11 -65 6 -76 -25 -47 -27 25 -33 15 -8 -12 25 -28
10 -53 -26 -45 -17 3 -30 1 -30 -4 0 -6 11 -10 25 -10 35 0 32 -27 -5 -35 -16
-4 -32 -11 -35 -16 -8 -12 12 -11 37 2 14 8 23 8 31 0 18 -18 -89 -61 -153
-61 -95 0 -166 65 -156 143 6 49 9 52 45 39 17 -6 33 -7 36 -3 2 5 -9 11 -25
15 -33 6 -37 21 -14 51 15 20 16 20 74 -13 75 -41 79 -28 5 16 -30 18 -55 35
-55 38 0 21 33 75 59 97 40 33 92 36 139 7z m-3110 -42 c16 -16 15 -69 -2 -90
-28 -38 -66 -14 -66 42 0 39 14 60 40 60 9 0 21 -5 28 -12z m374 -25 c52 -47
-15 -162 -77 -130 -28 14 -35 27 -35 63 0 66 68 107 112 67z m4708 -11 c0 -21
-98 -55 -170 -58 -52 -2 -67 -1 -50 5 14 5 37 9 52 10 15 1 30 5 33 11 4 6
-12 8 -42 4 -38 -4 -44 -3 -30 6 35 23 207 41 207 22z m-1178 -39 c26 -8 11
-23 -23 -23 -23 0 -29 4 -29 21 0 16 4 19 18 14 9 -4 25 -10 34 -12z m263 -63
c-22 -10 -46 -19 -52 -19 -7 -1 -13 -5 -13 -11 0 -14 11 -12 34 5 37 28 40 15
5 -21 -18 -19 -72 -54 -118 -77 -45 -23 -78 -43 -71 -45 20 -7 154 65 205 110
26 23 43 33 37 23 -5 -11 -20 -29 -31 -39 -12 -11 -21 -24 -21 -30 1 -6 21 12
45 39 54 61 57 44 9 -55 -51 -107 -118 -196 -164 -220 -95 -48 -207 -9 -224
78 -3 19 -15 47 -27 63 l-21 29 30 28 c19 18 37 50 47 85 l16 56 47 6 c26 4
52 8 57 10 6 2 64 3 130 3 l120 1 -40 -19z m-4089 -55 c18 -28 13 -64 -12 -89
-22 -23 -41 -20 -60 9 -18 28 -13 64 12 89 22 23 41 20 60 -9z m4305 -6 c120
-64 177 -165 149 -265 -12 -40 -57 -94 -80 -94 -4 0 -39 12 -76 26 -69 26
-119 28 -206 8 -25 -6 -28 -3 -28 17 0 13 16 62 36 109 20 47 49 117 64 155
l29 70 2 -65 c2 -62 2 -63 8 -20 l7 45 7 -35 c17 -72 38 -142 43 -137 3 2 -5
39 -16 81 -25 91 -22 113 9 63 12 -21 27 -34 33 -31 6 4 6 9 1 13 -14 10 -53
68 -53 80 0 16 6 14 71 -20z m-694 -5 c16 -12 29 -32 31 -46 3 -21 -3 -27 -43
-42 -64 -25 -99 -57 -119 -111 -35 -92 -81 -84 -166 27 -55 72 -59 80 -36 74
14 -3 26 -2 26 3 0 5 -10 11 -23 15 -13 3 -23 14 -24 25 -1 16 13 24 80 45
112 35 114 35 184 32 45 -1 71 -8 90 -22z m-2927 -29 c110 -17 170 -32 170
-44 0 -13 -295 -140 -363 -156 -109 -26 -161 -18 -199 29 -35 43 -13 117 44
147 27 15 150 37 208 38 25 1 88 -6 140 -14z m4146 -46 c30 -17 54 -34 54 -38
0 -14 -203 -45 -299 -46 l-94 0 -19 44 -18 43 37 -7 c72 -14 161 -21 180 -14
10 5 12 8 4 8 -43 3 -228 34 -241 41 -9 5 28 7 90 3 80 -4 113 -2 140 9 41 17
77 8 166 -43z m-3334 -14 c161 -21 341 -68 490 -126 70 -28 128 -54 128 -58 0
-4 -57 -17 -127 -29 -71 -12 -254 -45 -408 -73 -217 -39 -313 -52 -425 -56
-186 -7 -247 4 -304 57 -37 35 -41 43 -41 88 0 97 78 156 245 186 162 29 282
32 442 11z m2148 -30 c0 -3 -19 -37 -42 -76 -51 -86 -88 -119 -132 -119 -45 0
-52 11 -16 27 21 8 36 25 46 50 29 72 39 86 79 104 40 19 65 24 65 14z m-852
-21 c22 -15 22 -17 5 -30 -22 -16 -14 -18 22 -4 49 19 47 -2 -6 -51 -29 -27
-49 -52 -44 -56 4 -5 10 -3 12 4 5 14 106 93 118 93 5 0 -7 -17 -27 -37 -37
-39 -108 -142 -108 -156 0 -17 21 6 41 45 22 43 92 123 121 139 13 7 9 -3 -13
-34 -39 -56 -49 -126 -25 -171 9 -17 24 -64 34 -103 18 -71 18 -73 -1 -79 -56
-18 -194 28 -229 76 -24 33 -44 219 -29 263 13 37 78 117 94 117 7 0 23 -7 35
-16z m-2650 -31 c6 -61 -43 -100 -68 -54 -25 48 -4 94 40 89 20 -2 26 -9 28
-35z m2972 29 c0 -4 -7 -18 -16 -30 -9 -13 -13 -26 -9 -30 4 -4 10 -1 12 5 3
7 12 23 22 34 24 29 45 16 37 -22 -3 -16 -1 -29 4 -29 5 0 10 14 12 32 4 38
28 51 28 14 0 -13 5 -28 11 -31 7 -5 8 5 4 29 -5 22 -3 36 3 36 14 0 91 -87
102 -116 17 -44 12 -102 -9 -114 -33 -17 -96 -11 -155 15 -68 30 -95 31 -169
5 -31 -11 -61 -20 -67 -20 -21 0 -10 76 15 111 40 54 175 140 175 111z m-537
-56 l44 -43 7 -108 7 -107 -29 21 c-17 11 -44 37 -61 56 -29 34 -31 41 -31
115 0 71 6 110 16 110 2 0 23 -20 47 -44z m1117 -29 c0 -47 -20 -82 -70 -122
-21 -16 -50 -49 -65 -72 -41 -65 -79 -88 -145 -87 -57 0 -120 25 -120 47 0 7
14 25 31 40 l31 27 19 -23 c22 -27 25 -15 4 17 -9 13 -13 31 -9 40 5 12 15 5
51 -34 25 -28 48 -49 51 -46 2 3 -14 26 -37 52 -22 26 -41 50 -41 55 0 10 55
-18 70 -36 7 -8 17 -15 22 -15 6 0 6 6 -1 14 -9 11 -6 15 13 20 35 9 95 71
135 140 31 54 35 58 48 41 7 -11 13 -36 13 -58z m-3482 -109 c26 -26 8 -88
-24 -88 -20 0 -44 30 -44 54 0 26 17 46 40 46 9 0 21 -5 28 -12z m4087 -25
c28 -9 57 -18 65 -20 38 -12 -43 -24 -135 -21 -137 6 -189 34 -102 56 49 12
103 8 172 -15z m-1140 -19 c44 -15 87 -29 95 -31 43 -12 -86 -43 -186 -45 -48
-1 -70 4 -98 21 -20 13 -36 26 -36 31 0 7 106 46 135 49 6 1 46 -11 90 -25z
m-628 -97 c-12 -25 -25 -46 -29 -47 -5 0 -8 36 -8 80 l0 81 29 -34 30 -33 -22
-47z m-2070 77 c3 -8 -1 -23 -10 -31 -23 -23 -52 0 -36 28 12 23 37 25 46 3z
m3473 -6 c0 -13 -89 -169 -90 -157 0 33 30 112 51 135 19 20 39 31 39 22z m26
-41 c-6 -31 -63 -103 -74 -93 -2 3 12 35 33 71 39 71 51 77 41 22z m-233 -15
c-11 -81 -54 -175 -116 -255 -46 -59 -47 -35 -2 55 23 46 57 120 76 165 36 85
51 98 42 35z m-3073 23 c18 -22 8 -50 -19 -50 -28 0 -47 25 -38 49 8 20 40 21
57 1z m3015 -56 c-15 -35 -47 -103 -72 -151 -40 -78 -47 -87 -64 -77 -10 5
-19 13 -19 18 0 20 36 110 58 145 27 44 113 139 119 132 2 -2 -8 -32 -22 -67z
m-1061 20 l35 -20 -17 -45 c-16 -43 -18 -44 -59 -44 -40 0 -43 2 -43 26 0 21
37 104 46 104 2 0 19 -9 38 -21z m-2278 -7 c19 -12 25 -47 11 -66 -30 -41 -92
10 -73 59 6 16 43 20 62 7z m2762 -5 l92 2 1 -27 c1 -27 1 -27 8 3 4 18 14 31
25 33 17 4 18 -1 13 -42 -8 -54 7 -54 17 -1 9 44 26 46 27 3 1 -19 3 -25 6
-15 5 20 8 19 73 -4 19 -6 42 -14 50 -16 22 -7 -15 -31 -59 -39 -19 -4 -60
-18 -91 -32 -91 -41 -204 -29 -255 28 -9 10 -25 41 -36 70 l-20 52 28 -8 c15
-5 70 -8 121 -7z m-1066 -54 c26 -28 45 -81 73 -200 14 -59 28 -116 31 -125
10 -34 -26 -19 -75 30 -62 62 -124 185 -125 248 -1 37 4 50 22 65 26 20 44 16
74 -18z m2373 28 c-18 -16 -235 -62 -278 -59 l-42 3 69 24 c95 33 276 56 251
32z m-3858 -38 c28 -35 -29 -83 -78 -68 -16 5 -19 14 -17 38 5 51 63 69 95 30z
m1071 -19 c68 -34 99 -61 265 -227 103 -104 187 -191 187 -193 0 -18 -216 19
-335 57 -93 29 -223 99 -285 152 -52 44 -90 105 -90 143 0 117 106 145 258 68z
m2807 30 c-70 -56 -193 -84 -285 -66 -52 10 -47 12 84 32 44 7 105 20 135 30
73 23 93 25 66 4z m-1717 -22 c15 -10 35 -22 46 -26 17 -6 17 -8 4 -24 -22
-25 -85 -134 -93 -159 -12 -43 13 -23 38 30 14 28 39 71 56 95 l32 43 52 -7
c29 -4 53 -8 55 -9 9 -7 -54 -112 -90 -151 -40 -44 -143 -115 -185 -128 -22
-7 -23 -5 -23 47 0 99 49 307 72 307 5 0 22 -8 36 -18z m-1963 -12 c17 -19 17
-21 0 -40 -20 -23 -45 -26 -63 -8 -16 16 -15 33 4 52 21 21 37 20 59 -4z
m1853 -45 c2 -2 -3 -35 -12 -74 -9 -38 -16 -108 -16 -155 l0 -86 33 0 c21 0
58 15 100 40 36 22 67 40 69 40 2 0 2 -16 0 -35 -4 -35 -4 -36 24 -29 56 13
10 -12 -51 -29 -71 -19 -133 -45 -192 -82 l-43 -26 0 229 0 230 42 -10 c23 -5
44 -11 46 -13z m379 4 c9 -9 4 -25 -18 -64 -40 -71 -37 -92 4 -25 33 57 52 67
70 38 9 -13 5 -29 -13 -69 -20 -43 -33 -56 -68 -71 -23 -11 -57 -32 -75 -48
-18 -16 -46 -32 -62 -36 -24 -6 -27 -4 -22 10 4 10 7 24 7 31 0 7 18 35 40 61
23 27 53 74 69 105 44 88 46 90 68 68z m1079 -78 c41 -19 61 -37 51 -47 -7 -7
-147 42 -161 56 -18 18 65 11 110 -9z m-41 -37 c56 -21 58 -23 26 -23 -19 -1
-53 10 -78 24 -43 26 -59 44 -25 30 9 -4 44 -18 77 -31z m-664 -15 c46 -20 54
-21 105 -9 50 12 56 12 75 -6 49 -45 59 -99 35 -189 -15 -59 -56 -155 -65
-155 -3 0 -5 28 -4 62 l2 63 -11 -60 c-10 -62 -22 -85 -43 -85 -8 0 -14 30
-18 98 -3 53 -13 115 -21 137 -13 33 -15 35 -11 10 14 -83 27 -225 22 -239 -4
-9 -13 -16 -22 -16 -12 0 -15 14 -15 72 0 39 -3 68 -7 64 -5 -5 -8 -40 -8 -79
0 -106 -21 -97 -29 13 -4 50 -11 100 -17 113 -8 18 -9 14 -5 -18 23 -182 15
-266 -13 -156 -7 27 -19 57 -27 68 -10 12 -14 13 -10 3 2 -8 13 -39 22 -68
l18 -54 -24 -19 c-14 -10 -29 -17 -33 -16 -5 1 -24 38 -42 82 -36 87 -81 171
-96 180 -15 10 -11 -1 21 -52 33 -53 94 -213 82 -213 -5 0 -21 14 -37 30 -16
17 -33 30 -39 30 -5 0 7 -18 28 -39 68 -69 15 -84 -80 -23 -85 54 -92 58 -64
29 14 -14 51 -39 83 -55 49 -25 55 -31 42 -42 -18 -15 -107 0 -189 31 -51 19
-74 19 -38 0 32 -17 104 -40 150 -47 58 -9 48 -29 -13 -27 -48 1 -51 -11 -5
-21 14 -2 -22 -3 -80 -1 -156 5 -215 38 -215 119 1 31 10 55 40 100 32 47 40
70 46 123 5 50 13 72 36 101 42 52 104 82 171 82 49 0 58 4 100 40 70 63 124
73 203 39z m-2172 -25 c43 -14 114 -46 157 -70 110 -62 292 -150 342 -165 23
-7 42 -15 42 -19 0 -12 -77 -20 -255 -26 -193 -7 -306 7 -397 49 -110 50 -164
124 -137 189 29 71 116 86 248 42z m3150 -24 c-20 -56 -118 -150 -158 -150 -6
0 12 22 41 50 28 27 48 53 45 57 -4 4 -29 -14 -55 -39 -52 -51 -112 -86 -112
-66 0 22 95 103 165 140 39 20 73 37 77 37 4 1 2 -12 -3 -29z m-3529 -20 c0
-23 -42 -64 -83 -81 -26 -11 -31 -10 -43 5 -22 30 8 79 61 101 35 16 65 4 65
-25z m3077 18 c11 -13 24 -34 28 -48 11 -38 23 -49 87 -81 76 -38 98 -73 98
-156 0 -34 5 -86 11 -114 22 -100 -17 -189 -94 -218 -40 -16 -123 -13 -192 5
-63 16 -111 41 -100 52 3 3 42 5 85 3 56 -2 80 1 80 9 0 8 -12 10 -37 6 -21
-3 -56 -2 -78 2 -31 6 -41 12 -43 29 -4 24 2 27 93 38 51 7 122 32 114 40 -3
2 -24 -3 -49 -11 -24 -8 -71 -18 -106 -21 l-62 -6 -17 33 c-9 17 -15 33 -13
34 2 1 37 21 78 45 67 38 164 111 147 111 -4 0 -33 -19 -65 -42 -32 -24 -85
-56 -119 -72 -58 -27 -61 -28 -81 -10 -26 22 -19 37 51 111 27 29 45 53 39 53
-6 0 -37 -29 -69 -65 -32 -36 -64 -65 -70 -65 -16 0 -16 0 3 45 8 20 13 40 9
43 -3 3 -13 -13 -22 -36 -9 -23 -22 -42 -30 -42 -7 0 -13 4 -13 9 0 8 44 111
76 176 21 43 92 124 128 146 44 27 107 25 133 -3z m-3317 -200 c0 -57 -39
-105 -75 -92 -20 8 -20 66 0 104 26 51 75 43 75 -12z m188 9 c6 -49 -56 -93
-72 -51 -9 24 -8 29 15 58 27 34 53 30 57 -7z m2062 -12 c0 -61 -6 -66 -68
-58 -40 4 -53 3 -48 -5 4 -7 23 -12 42 -12 41 0 43 -12 9 -63 -29 -42 -53 -46
-112 -22 -42 18 -103 62 -103 75 0 23 251 136 273 123 4 -2 7 -19 7 -38z
m1560 -32 c0 -13 -64 -53 -101 -63 -44 -13 -106 -13 -114 0 -4 6 9 10 32 11
82 2 89 17 8 18 -67 1 -77 4 -60 14 11 6 65 14 120 18 55 3 103 6 108 7 4 1 7
-1 7 -5z m-2250 -82 c0 -13 -122 -113 -205 -168 -185 -123 -354 -192 -486
-200 -77 -5 -91 -3 -127 17 -54 30 -76 73 -70 134 7 55 26 80 88 111 89 45
169 57 575 91 110 9 202 18 204 20 8 7 21 4 21 -5z m483 -63 l47 -24 -50 -38
c-28 -21 -64 -55 -81 -75 l-30 -36 6 70 c3 39 8 92 11 118 l6 49 22 -20 c11
-11 42 -31 69 -44z m-1970 21 c23 -36 -19 -98 -57 -83 -21 8 -21 62 1 86 19
21 41 20 56 -3z m2920 0 c80 -22 151 -130 127 -193 -8 -21 -16 -26 -45 -26
-30 0 -37 -5 -48 -32 -21 -51 -34 -57 -141 -71 -31 -4 -55 42 -65 122 -6 49
-17 84 -31 103 -12 16 -20 32 -17 34 8 8 67 -47 83 -78 9 -16 18 -28 21 -25 7
8 -15 45 -54 88 -20 22 -33 42 -30 45 3 3 31 -6 63 -20 66 -30 86 -28 25 4
-23 11 -41 23 -41 27 0 6 97 -3 127 -13 15 -5 15 -4 3 5 -8 6 -35 14 -60 18
-43 7 -44 7 -15 14 45 10 56 10 98 -2z m-3098 -29 c9 -27 -12 -94 -35 -115
-58 -53 -83 63 -25 121 26 26 51 23 60 -6z m518 19 c77 -21 101 -83 51 -130
-23 -21 -35 -24 -102 -24 -123 1 -192 48 -164 110 22 49 125 69 215 44z m3402
-54 c72 -54 46 -89 -74 -101 -84 -8 -88 2 -18 38 23 12 37 23 30 25 -6 2 -30
-5 -52 -17 -23 -11 -41 -17 -41 -13 0 16 86 93 104 93 10 0 34 -11 51 -25z
m-1655 -12 c0 -10 3 -27 6 -38 4 -17 -3 -24 -45 -39 -47 -16 -69 -32 -60 -41
2 -2 30 7 61 20 l56 23 21 -22 c24 -25 26 -36 9 -36 -6 0 -26 -12 -45 -26 -33
-25 -36 -26 -101 -14 -88 15 -102 19 -102 34 0 26 155 156 187 156 7 0 13 -8
13 -17z m608 -45 c11 -24 23 -70 27 -103 8 -72 29 -110 67 -126 53 -22 45 -95
-14 -125 -18 -9 -50 -32 -72 -50 -49 -42 -88 -51 -122 -29 -43 28 -27 50 35
50 61 0 86 21 97 83 10 52 -11 167 -40 224 -32 62 -35 118 -5 118 4 0 16 -19
27 -42z m-1195 -25 c-17 -177 -77 -364 -153 -471 -47 -67 -87 -94 -142 -96
-50 -1 -88 37 -88 87 0 41 55 155 109 227 45 60 262 299 272 300 4 0 5 -21 2
-47z m1087 -53 c0 -33 3 -60 8 -60 4 0 6 24 4 52 -3 50 -2 52 13 33 40 -49 58
-101 63 -176 3 -49 0 -84 -8 -99 -11 -20 -17 -22 -64 -16 -44 5 -54 3 -69 -14
-22 -26 -57 -25 -91 1 -23 18 -26 27 -26 83 0 69 18 131 50 177 30 41 44 36
21 -8 -10 -21 -21 -54 -25 -73 -6 -32 -5 -31 12 10 36 88 103 186 72 106 -5
-15 -10 -42 -9 -59 1 -23 5 -12 16 36 9 37 20 67 24 67 5 0 9 -27 9 -60z
m-2624 -15 c7 -29 -13 -85 -30 -85 -32 0 -47 51 -26 91 15 28 48 24 56 -6z
m2382 -15 c56 0 72 -3 72 -15 0 -18 -24 -31 -77 -40 -24 -4 -46 -12 -49 -17
-5 -7 2 -9 21 -4 91 23 90 23 79 -32 -6 -27 -13 -32 -73 -52 -37 -12 -81 -31
-97 -42 -16 -11 -20 -17 -9 -13 72 27 158 55 166 55 5 0 9 -9 9 -20 0 -12 -16
-29 -45 -46 -55 -32 -54 -42 1 -14 37 19 40 19 51 3 21 -28 16 -38 -57 -99
-38 -32 -70 -62 -70 -68 0 -5 15 4 33 20 17 17 52 45 77 63 37 25 52 30 78 25
36 -7 38 -13 16 -55 -8 -17 -13 -33 -10 -36 3 -4 15 16 27 42 20 45 23 47 35
30 23 -31 16 -60 -36 -162 -27 -53 -48 -98 -46 -100 7 -7 74 111 91 162 l18
50 68 1 c68 0 68 0 63 -25 -20 -87 -37 -149 -50 -176 l-15 -30 19 22 c11 12
30 64 42 115 13 51 24 94 25 96 2 2 19 0 39 -3 32 -6 36 -11 36 -37 0 -47 -27
-141 -64 -221 -52 -114 -117 -156 -243 -158 -79 -1 -131 15 -174 54 -47 42
-66 73 -84 135 -9 28 -26 64 -39 79 -39 47 -44 65 -43 153 0 78 -2 90 -31 141
-58 101 -34 179 65 215 21 8 54 12 73 9 19 -3 68 -5 108 -5z m-2544 -32 c30
-42 13 -128 -24 -128 -37 0 -56 103 -24 134 21 21 30 20 48 -6z m3331 -13 c33
-12 101 -27 152 -34 106 -13 168 -33 201 -64 54 -50 77 -139 51 -190 -7 -12
-33 -42 -60 -67 -37 -35 -49 -54 -55 -87 -13 -84 -59 -123 -147 -123 -38 0
-88 -22 -143 -64 -62 -48 -103 -59 -189 -54 -102 7 -146 30 -162 87 -11 37
-10 54 2 102 9 32 20 82 25 111 10 50 22 68 46 68 7 0 14 -31 18 -77 3 -43 13
-103 21 -133 8 -30 12 -41 10 -25 -2 17 -10 78 -17 138 -11 98 -11 109 5 124
23 23 30 14 72 -97 21 -52 39 -97 42 -100 11 -11 -11 68 -38 134 -16 39 -29
74 -29 79 0 19 23 3 42 -28 11 -20 23 -34 26 -31 2 3 -3 17 -13 32 -13 20 -14
29 -5 38 12 11 24 0 113 -104 33 -39 36 -41 20 -12 -10 18 -37 54 -59 80 -41
46 -41 48 -27 77 9 17 17 31 18 33 2 2 35 -13 74 -32 76 -39 81 -40 81 -27 0
4 -36 24 -80 44 -75 34 -80 38 -80 67 0 19 5 30 14 30 8 0 72 -22 143 -49 70
-27 137 -52 148 -56 14 -6 17 -5 10 3 -13 13 -182 85 -255 107 -54 17 -80 37
-80 61 0 10 11 9 48 0 26 -7 58 -18 70 -25 12 -6 22 -8 22 -4 0 10 -109 53
-133 53 -9 0 -17 2 -17 4 0 2 -3 11 -6 19 -3 10 2 17 13 20 20 5 23 4 108 -28z
m672 -6 c32 -10 46 -29 37 -53 -8 -21 -98 -59 -123 -51 -23 7 -85 84 -76 93 3
3 23 -9 46 -27 52 -42 66 -30 17 14 -21 17 -38 35 -38 38 0 8 97 -2 137 -14z
m-3326 -18 c39 -40 38 -74 -4 -116 -85 -85 -257 -65 -257 30 0 68 68 114 168
115 57 0 66 -3 93 -29z m2524 -43 c17 -57 19 -116 6 -137 -5 -7 -30 -17 -56
-22 -26 -5 -68 -23 -94 -39 -34 -23 -55 -30 -81 -28 -46 4 -46 25 0 55 74 47
73 46 78 111 2 34 8 62 12 62 4 0 15 -24 24 -52 12 -41 15 -45 12 -18 -2 19
-7 43 -11 53 -6 13 -2 17 18 17 22 0 27 -6 33 -35 3 -19 11 -35 16 -35 5 0 6
10 3 23 -4 12 -9 30 -11 39 -5 17 15 58 28 58 4 0 14 -23 23 -52z m-1896 -101
c-109 -249 -171 -347 -264 -418 -43 -32 -67 -43 -105 -47 -44 -4 -52 -2 -80
26 -25 26 -30 38 -30 79 0 87 68 166 261 306 123 90 252 174 261 170 3 -2 -16
-54 -43 -116z m-1120 -21 c17 -21 10 -97 -11 -109 -28 -18 -48 9 -48 63 0 25
3 50 7 53 11 12 40 8 52 -7z m654 -17 c29 -35 22 -83 -19 -128 -62 -69 -177
-92 -204 -41 -22 41 -12 79 36 131 67 71 146 87 187 38z m-810 -75 c8 -45 -1
-90 -20 -105 -23 -20 -43 11 -50 73 -4 43 -2 58 11 71 25 24 52 6 59 -39z
m2138 -6 c-34 -61 -46 -98 -33 -98 5 0 20 27 35 60 26 62 47 78 47 37 0 -13 3
-58 6 -100 l7 -76 -29 -11 c-60 -24 -154 30 -154 87 0 42 34 90 87 123 26 17
51 30 55 30 5 0 -5 -24 -21 -52z m1841 30 c47 -10 98 -49 98 -75 0 -7 -15 -29
-32 -48 -42 -46 -98 -57 -124 -26 -23 27 -75 141 -65 141 5 0 32 -16 61 -36
89 -61 64 -22 -32 48 l-23 17 35 -5 c19 -3 56 -10 82 -16z m-265 -140 c38 -42
93 -171 93 -220 0 -36 -117 -16 -196 32 l-33 21 21 34 c11 19 22 35 25 35 2 0
25 -16 49 -36 58 -48 57 -25 -1 28 -50 46 -56 70 -23 105 27 29 39 29 65 1z
m-3490 -20 c26 -30 33 -51 22 -69 -17 -28 -79 41 -66 75 9 22 20 20 44 -6z
m-143 -59 c33 -38 37 -99 7 -99 -20 0 -81 65 -81 87 0 13 27 43 40 43 4 0 20
-14 34 -31z m339 -26 c8 -16 12 -34 10 -40 -7 -20 -47 -15 -71 7 -18 17 -20
25 -12 40 16 30 57 26 73 -7z m-163 -123 c58 -54 13 -96 -49 -45 -43 37 -41
71 5 74 7 1 26 -12 44 -29z m343 -3 c20 -25 20 -28 5 -44 -16 -15 -19 -15 -43
1 -33 22 -41 42 -25 62 18 20 39 14 63 -19z m602 -17 c0 -33 -78 -89 -102 -74
-28 18 -26 33 11 70 27 27 42 35 63 32 22 -2 28 -8 28 -28z m1730 1 c8 -16 18
-68 21 -115 8 -103 17 -106 15 -6 l-1 72 33 -7 c51 -11 62 -21 76 -63 12 -35
11 -43 -9 -83 -26 -50 -88 -129 -101 -129 -14 0 -93 128 -119 193 l-23 58 25
27 c14 15 33 39 43 55 9 15 19 27 21 27 2 0 10 -13 19 -29z m455 -82 c7 -74
-3 -265 -15 -277 -2 -3 -24 7 -49 22 -72 42 -160 130 -194 194 l-32 59 66 7
c77 8 78 7 115 -91 13 -35 28 -63 32 -63 10 0 3 23 -30 109 -21 52 -23 65 -12
72 8 4 32 21 54 38 22 16 44 26 48 22 4 -4 12 -46 17 -92z m-2936 30 c33 -38
34 -69 4 -69 -45 0 -92 79 -55 93 21 9 25 8 51 -24z m543 16 c8 -22 -25 -55
-54 -55 -31 0 -40 26 -18 50 21 24 63 26 72 5z m-232 -35 c19 -21 14 -50 -9
-50 -41 0 -85 38 -70 61 10 16 60 9 79 -11z m180 -98 c12 -32 -71 -76 -104
-55 -27 17 -18 37 27 60 46 23 66 22 77 -5z m-285 -45 c21 -37 5 -51 -41 -36
-47 16 -59 27 -59 54 0 13 6 25 13 28 21 8 71 -19 87 -46z"/>
<path d="M5291 2862 c-6 -48 -14 -103 -16 -122 -10 -72 6 -9 24 94 10 59 15
109 11 111 -4 2 -12 -35 -19 -83z"/>
<path d="M5325 2790 c3 -5 8 -10 11 -10 2 0 4 5 4 10 0 6 -5 10 -11 10 -5 0
-7 -4 -4 -10z"/>
<path d="M4260 2584 c-14 -35 -9 -38 13 -9 10 15 13 26 7 30 -6 3 -15 -6 -20
-21z"/>
<path d="M4333 2463 c9 -2 25 -2 35 0 9 3 1 5 -18 5 -19 0 -27 -2 -17 -5z"/>
</g>
</svg>
