<?xml version="1.0" standalone="no"?>
<!DOCTYPE svg PUBLIC "-//W3C//DTD SVG 20010904//EN"
 "http://www.w3.org/TR/2001/REC-SVG-20010904/DTD/svg10.dtd">
<svg version="1.0" xmlns="http://www.w3.org/2000/svg"
 width="92.070000pt" height="92.070000pt" viewBox="0 0 92.070000 92.070000"
 preserveAspectRatio="xMidYMid meet">
<metadata>
Created by potrace 1.13, written by Peter Selinger 2001-2015
</metadata>
<g transform="translate(0.000000,92.070000) scale(0.026457,-0.026457)"
fill="#000000" stroke="none">
<path d="M1638 3457 c-32 -27 -48 -57 -49 -94 0 -15 -3 -22 -6 -15 -3 7 -18
19 -34 27 -28 15 -29 14 -29 -5 0 -25 18 -62 35 -72 10 -6 10 -21 -1 -70 -7
-35 -13 -109 -14 -164 0 -83 -3 -106 -18 -124 -25 -31 -60 -21 -117 31 -40 36
-42 42 -33 67 8 21 7 35 -3 57 -19 39 -36 42 -44 7 -5 -23 -10 -29 -26 -25
-29 8 -23 -16 9 -30 52 -22 56 -47 8 -47 -39 0 -66 -8 -66 -20 0 -16 60 -32
95 -26 31 6 40 2 84 -35 63 -54 69 -83 40 -186 -21 -75 -21 -79 -5 -224 9 -82
13 -155 10 -163 -8 -21 -60 41 -56 66 4 20 -14 48 -29 48 -5 0 -9 -9 -9 -20 0
-19 -1 -19 -24 -5 -16 11 -30 13 -47 7 l-23 -9 27 -18 c15 -9 33 -15 41 -12 8
3 20 -1 26 -8 10 -12 7 -17 -16 -25 -36 -14 -19 -33 33 -35 33 -1 41 -6 60
-40 12 -22 30 -69 39 -105 9 -36 32 -93 50 -126 l34 -62 -183 -4 c-263 -7
-351 7 -414 65 -21 19 -23 29 -23 123 0 57 -5 125 -11 152 -10 48 -9 50 20 80
23 23 31 40 31 66 0 20 -4 36 -10 36 -5 0 -25 -16 -44 -35 l-36 -35 -6 27 c-3
16 -8 34 -10 42 -2 8 3 22 12 32 19 21 32 109 16 109 -14 0 -52 -49 -52 -67 0
-10 -6 -13 -15 -9 -8 3 -22 9 -30 12 -24 10 3 -54 31 -73 30 -19 31 -49 3 -56
-24 -6 -17 -27 10 -27 33 0 54 -142 35 -239 l-6 -31 -28 38 c-35 48 -83 89
-137 115 -35 17 -43 26 -43 49 0 30 -19 78 -31 78 -10 0 -19 -27 -19 -58 l0
-25 -24 22 c-21 19 -22 26 -13 50 8 21 7 37 -2 60 -16 37 -31 40 -31 7 0 -14
-4 -28 -10 -31 -6 -3 -7 1 -4 10 11 28 -6 65 -39 85 -17 11 -35 20 -39 20 -12
0 -10 -58 2 -81 10 -17 7 -20 -20 -26 l-31 -6 23 -24 c30 -33 72 -54 99 -50
34 3 34 -20 0 -28 -17 -4 -31 -11 -31 -16 0 -16 62 -41 93 -36 68 10 136 -40
203 -151 76 -124 108 -158 177 -191 79 -37 143 -50 276 -57 109 -5 181 -15
254 -35 l42 -12 -135 -34 c-104 -26 -170 -36 -288 -43 -84 -5 -157 -12 -162
-15 -5 -3 -18 3 -30 15 -15 15 -33 20 -67 20 l-48 -1 32 -28 31 -29 -43 -11
c-56 -14 -52 -15 -59 14 -5 18 -17 28 -46 36 -22 7 -43 10 -46 7 -3 -4 2 -20
11 -37 17 -34 12 -40 -11 -16 -18 17 -50 20 -59 5 -3 -5 5 -15 20 -22 l25 -11
-25 -17 c-32 -21 -23 -30 32 -30 31 0 48 6 60 20 26 30 46 27 31 -5 -6 -14 -8
-28 -5 -31 9 -9 57 24 64 44 8 21 23 32 44 32 12 0 15 -7 11 -25 -4 -21 -1
-24 14 -19 30 11 44 25 44 44 0 13 11 19 46 24 60 8 158 7 209 -2 l40 -7 -54
-24 c-66 -28 -116 -37 -125 -22 -8 13 -76 15 -76 2 0 -5 7 -12 16 -15 10 -4
13 -13 9 -26 -8 -25 5 -25 53 0 l37 20 5 -35 c5 -35 6 -35 28 -20 12 9 22 26
22 39 0 19 13 28 78 54 152 63 193 73 332 83 283 20 347 21 440 10 52 -7 132
-15 178 -18 l82 -6 -5 -31 c-3 -17 -17 -106 -30 -198 -14 -93 -37 -243 -50
-335 -14 -93 -30 -198 -35 -235 -7 -45 -17 -75 -30 -88 -22 -22 -25 -46 -10
-85 8 -20 4 -68 -15 -186 -41 -258 -29 -231 -110 -246 -173 -30 -160 -25 -161
-63 0 -30 -6 -37 -70 -77 -114 -71 -146 -84 -185 -73 -45 13 -49 13 -49 -5 0
-8 -4 -15 -10 -15 -5 0 -10 -7 -10 -15 0 -16 30 -35 57 -35 10 0 37 -9 58 -20
l40 -21 30 35 c30 34 78 61 164 91 62 21 66 20 95 -30 17 -28 36 -47 52 -51
14 -4 36 -17 49 -30 13 -13 34 -24 47 -24 12 0 39 -12 59 -26 30 -20 41 -23
57 -15 15 8 23 7 32 -4 20 -24 75 -18 110 11 l31 27 -28 17 c-70 42 -85 133
-34 211 42 65 100 127 101 108 0 -33 40 -69 76 -69 23 0 34 -5 34 -14 0 -49
90 -63 137 -21 21 18 24 24 12 25 -32 0 -38 61 -15 128 23 65 29 127 16 167
-15 44 -99 105 -146 105 -30 0 -64 -25 -64 -48 0 -6 -10 -12 -21 -14 -12 -2
-31 -15 -42 -30 -17 -22 -18 -30 -7 -43 24 -29 -15 -17 -45 15 l-29 30 83 302
c46 167 91 332 102 368 18 65 105 381 129 474 l13 49 81 -6 c66 -6 197 -34
289 -63 16 -5 17 6 17 132 l0 137 -37 -7 c-85 -14 -404 -28 -570 -24 -187 4
-229 13 -252 56 -13 25 -51 212 -51 252 0 17 -5 41 -11 52 -11 20 -13 20 -24
5 -11 -16 -14 -14 -25 13 -12 29 -37 50 -59 50 -20 0 -11 -22 20 -51 30 -28
31 -29 8 -29 -23 -1 -23 -1 -6 -15 11 -7 24 -11 31 -9 15 6 42 -53 52 -109 3
-20 3 -66 -1 -102 l-7 -65 -41 -11 c-25 -7 -106 -10 -209 -7 l-167 3 -30 29
c-38 37 -116 221 -130 307 -6 35 -11 110 -11 166 0 103 0 103 34 140 18 21 45
57 60 80 15 24 43 51 64 62 21 11 44 27 51 35 7 9 17 13 22 10 11 -6 49 14 49
26 0 6 -7 10 -17 10 -15 0 -15 1 0 18 10 10 17 31 17 46 0 24 -2 25 -20 16
-14 -7 -20 -21 -20 -43 -1 -29 -2 -30 -13 -12 -11 19 -12 18 -17 -14 -5 -33
-52 -82 -66 -69 -8 9 17 86 33 99 14 12 18 49 5 49 -17 0 -32 -25 -32 -53 0
-22 -4 -28 -15 -23 -8 3 -22 9 -30 12 -20 8 -19 -15 1 -44 9 -13 13 -31 9 -43
-11 -32 -65 -89 -86 -89 -28 0 -25 73 6 145 29 64 32 112 20 252 l-8 93 36 15
c70 29 85 94 16 68 -26 -10 -30 -10 -25 3 3 9 6 18 6 20 0 2 6 4 14 4 8 0 26
14 40 31 19 23 26 42 26 75 0 50 -12 55 -52 21z m976 -1694 c-37 -140 -295
-1080 -300 -1092 -3 -9 -25 14 -60 60 -30 41 -59 75 -64 77 -6 2 -10 25 -10
50 0 45 6 89 64 472 14 91 36 233 48 317 l22 152 90 4 c50 1 121 4 157 5 l66
2 -13 -47z m-393 -1190 c10 -34 25 -63 32 -66 15 -5 17 -4 -70 -50 -48 -25
-73 -34 -73 -25 0 7 10 77 22 156 l22 142 23 -47 c13 -27 33 -76 44 -110z"/>
</g>
</svg>
