<?xml version="1.0" standalone="no"?>
<!DOCTYPE svg PUBLIC "-//W3C//DTD SVG 20010904//EN"
 "http://www.w3.org/TR/2001/REC-SVG-20010904/DTD/svg10.dtd">
<svg version="1.0" xmlns="http://www.w3.org/2000/svg"
 width="92.070000pt" height="92.070000pt" viewBox="0 0 92.070000 92.070000"
 preserveAspectRatio="xMidYMid meet">
<metadata>
Created by potrace 1.13, written by Peter Selinger 2001-2015
</metadata>
<g transform="translate(0.000000,92.070000) scale(0.026457,-0.026457)"
fill="#000000" stroke="none">
<path d="M1647 3462 c-31 -19 -61 -76 -54 -103 3 -10 1 -19 -4 -19 -5 0 -9 4
-9 10 0 5 -13 16 -30 25 -30 15 -30 15 -30 -10 0 -14 11 -37 25 -51 24 -24 24
-26 11 -83 -7 -31 -13 -106 -13 -164 0 -89 -3 -111 -18 -127 -27 -30 -57 -24
-110 22 -49 44 -62 47 -137 32 -38 -8 -35 -20 7 -34 25 -8 44 -9 65 -1 28 9
34 7 80 -36 61 -56 70 -92 45 -172 -22 -71 -24 -131 -9 -251 13 -98 17 -170
10 -170 -14 0 -66 65 -62 77 7 17 -10 53 -24 53 -6 0 -10 -9 -10 -20 0 -11 -4
-20 -10 -20 -5 0 -10 4 -10 9 0 14 -28 21 -52 12 l-22 -8 26 -17 c14 -9 32
-14 40 -11 8 3 21 -1 27 -9 11 -13 9 -17 -15 -27 l-29 -11 25 -13 c14 -8 35
-11 47 -8 29 7 66 -50 91 -142 20 -73 64 -169 82 -180 5 -3 10 -9 10 -13 0 -4
-105 -7 -233 -6 -190 0 -243 4 -291 18 -96 28 -102 40 -108 192 -3 71 -11 142
-17 159 -8 20 -9 31 -2 33 31 10 53 41 58 80 7 53 -5 54 -50 2 l-34 -40 -12
43 c-11 39 -11 47 8 78 21 34 29 99 12 99 -15 0 -51 -51 -51 -72 0 -17 -1 -18
-25 -2 -14 9 -27 15 -29 13 -10 -10 26 -71 44 -76 14 -4 20 -14 20 -35 0 -16
-4 -27 -8 -24 -4 2 -14 1 -22 -4 -11 -7 -7 -10 13 -15 20 -5 29 -16 37 -44 12
-47 15 -145 6 -199 l-8 -43 -27 44 c-31 48 -87 96 -144 123 -26 12 -37 24 -37
39 0 29 -20 85 -30 85 -11 0 -21 -57 -13 -77 6 -16 5 -17 -13 -3 -42 33 -44
37 -34 66 8 19 7 37 -1 61 -12 37 -29 36 -29 -3 0 -13 -5 -24 -10 -24 -6 0 -8
10 -4 24 8 32 -10 62 -46 81 -16 8 -31 15 -35 15 -11 0 -4 -57 10 -76 18 -24
19 -32 3 -31 -7 0 -24 -1 -37 -1 l-24 -2 24 -26 c28 -31 82 -56 102 -48 8 3
20 -2 27 -11 7 -8 10 -16 6 -16 -3 -1 -10 -3 -16 -4 -5 -1 -19 -3 -30 -4 -29
-2 -24 -18 11 -37 21 -10 43 -14 66 -9 67 12 144 -53 228 -193 21 -35 52 -78
70 -96 67 -68 187 -103 366 -110 107 -4 159 -12 254 -38 l40 -11 -50 -13
c-155 -42 -277 -63 -367 -65 -54 -1 -118 -5 -143 -10 -39 -7 -48 -6 -65 11
-14 14 -33 20 -68 20 l-47 -1 32 -29 c35 -31 35 -31 -32 -44 -26 -5 -32 -2
-46 22 -17 30 -65 50 -81 34 -5 -5 0 -20 13 -36 26 -33 17 -48 -11 -18 -22 23
-54 29 -65 12 -3 -5 7 -16 22 -24 l28 -14 -28 -13 c-20 -9 -24 -15 -15 -21 26
-16 76 -8 106 17 40 34 54 32 35 -6 -8 -16 -13 -33 -10 -35 10 -11 47 17 62
46 9 17 22 30 29 30 8 0 23 3 33 6 15 6 16 4 5 -7 -6 -7 -12 -21 -12 -31 0
-17 2 -18 30 -3 17 9 30 24 30 34 0 13 10 20 31 25 42 8 208 6 239 -4 24 -7
23 -8 -22 -28 -80 -36 -118 -43 -135 -27 -8 8 -29 15 -46 15 l-32 -1 22 -18
c15 -12 19 -21 12 -28 -22 -22 10 -23 48 -3 21 11 40 20 43 20 3 0 4 -17 2
-37 -5 -37 -5 -37 19 -21 13 8 26 28 29 42 4 24 18 32 119 72 63 25 133 49
157 54 94 21 496 32 624 17 36 -4 98 -10 138 -14 39 -3 72 -10 72 -14 0 -5 -9
-66 -20 -136 -10 -71 -33 -220 -50 -333 -55 -368 -60 -393 -82 -417 -19 -20
-20 -26 -9 -68 10 -39 7 -73 -19 -235 -16 -105 -30 -193 -30 -195 0 -3 -9 -5
-20 -5 -12 0 -56 -7 -98 -15 -135 -27 -125 -22 -118 -59 5 -28 3 -34 -21 -47
-15 -8 -63 -36 -108 -62 -81 -49 -86 -50 -154 -31 -18 5 -23 4 -19 -7 3 -8 -2
-19 -10 -25 -22 -16 -8 -30 45 -43 27 -7 58 -19 71 -27 23 -15 25 -14 60 24
25 26 63 49 114 70 91 38 113 40 129 10 18 -35 61 -78 78 -78 9 0 27 -12 40
-25 13 -14 34 -25 48 -25 14 0 38 -11 54 -25 25 -20 34 -23 56 -14 20 7 30 6
43 -6 21 -19 43 -19 79 -1 36 19 59 46 39 46 -30 0 -88 80 -88 122 0 36 43
119 90 171 42 47 60 52 60 17 0 -26 38 -50 78 -50 21 0 31 -4 27 -11 -11 -17
26 -49 58 -49 35 0 112 43 85 48 -9 2 -21 16 -28 31 -9 23 -7 40 11 96 23 71
28 130 16 177 -8 32 -103 98 -140 98 -30 0 -70 -29 -63 -46 4 -9 -2 -14 -17
-14 -30 0 -71 -52 -54 -69 7 -7 8 -14 1 -21 -7 -7 -23 0 -48 22 -34 30 -37 36
-27 58 9 22 280 1007 312 1133 10 41 15 47 38 47 38 0 169 -26 266 -54 46 -13
87 -21 90 -18 3 3 5 63 5 135 l0 129 -37 -6 c-173 -26 -546 -41 -666 -27 -107
12 -137 26 -159 71 -19 40 -50 189 -48 238 0 17 -4 41 -10 53 -11 19 -12 19
-24 4 -11 -16 -14 -14 -29 18 -15 30 -51 57 -62 45 -8 -9 18 -51 35 -55 27 -7
25 -23 -2 -23 -22 -1 -22 -1 -5 -15 11 -7 25 -11 32 -9 7 3 20 -14 34 -45 27
-65 31 -211 4 -232 -12 -11 -62 -14 -206 -16 -239 -2 -234 -5 -293 123 -55
117 -81 213 -90 329 -7 105 4 161 42 196 14 13 37 45 51 70 18 33 36 52 64 64
21 10 46 26 55 36 9 10 20 16 25 13 11 -6 49 14 49 26 0 6 -7 10 -17 10 -15 0
-15 2 1 19 10 11 16 31 14 47 -3 27 -4 27 -20 10 -10 -10 -18 -29 -18 -43 0
-22 -2 -24 -16 -12 -14 12 -16 10 -12 -16 3 -25 -3 -32 -37 -52 -22 -12 -41
-21 -42 -19 -6 6 28 91 43 108 9 9 14 25 10 34 -10 26 -36 -2 -36 -38 0 -20
-4 -28 -12 -25 -46 19 -48 19 -48 3 0 -9 9 -25 19 -35 18 -18 19 -21 3 -50
-20 -36 -70 -91 -82 -91 -18 0 -32 43 -26 76 4 18 19 59 33 91 20 44 26 70 24
113 -2 30 -4 95 -5 144 -1 88 -1 89 24 93 14 1 36 15 48 30 22 24 22 27 7 36
-11 6 -26 5 -41 -2 -37 -16 -32 15 5 34 41 21 61 53 61 97 0 45 -8 51 -43 30z
m979 -1659 c-2 -10 -73 -268 -156 -573 -83 -305 -153 -561 -156 -569 -3 -8
-14 1 -31 25 -44 66 -77 109 -90 117 -20 12 -16 100 12 280 27 170 37 238 81
532 15 99 28 182 30 184 2 2 69 5 151 8 81 3 150 7 152 9 9 9 12 3 7 -13z
m-405 -1222 c10 -29 24 -60 30 -68 14 -16 21 -11 -74 -62 -74 -41 -78 -42 -72
-19 3 12 12 68 20 123 8 55 18 118 21 139 l7 39 25 -49 c13 -26 33 -73 43
-103z"/>
<path d="M1328 3103 c-2 -23 -7 -27 -25 -25 -32 4 -29 -12 5 -29 15 -8 32 -20
38 -28 8 -11 13 -7 23 17 11 25 10 35 -3 61 -20 38 -34 40 -38 4z"/>
</g>
</svg>
