<?xml version="1.0" standalone="no"?>
<!DOCTYPE svg PUBLIC "-//W3C//DTD SVG 20010904//EN"
 "http://www.w3.org/TR/2001/REC-SVG-20010904/DTD/svg10.dtd">
<svg version="1.0" xmlns="http://www.w3.org/2000/svg"
 width="88.363509pt" height="60.320000pt" viewBox="0 0 88.363509 60.320000"
 preserveAspectRatio="xMidYMid meet">
<metadata>
Created by potrace 1.13, written by Peter Selinger 2001-2015
</metadata>
<g transform="translate(0.000000,60.320000) scale(0.026456,-0.026456)"
fill="#000000" stroke="none">
<path d="M2117 1922 l-207 -207 0 -125 0 -125 -140 -140 c-97 -97 -140 -147
-140 -162 0 -30 42 -58 67 -44 10 5 74 66 143 135 l125 126 140 0 140 0 208
208 208 208 -146 16 c-81 9 -148 18 -151 21 -3 2 -11 67 -20 143 -8 77 -16
142 -17 147 -1 4 -95 -86 -210 -201z"/>
<path d="M1502 2029 c-486 -63 -843 -489 -819 -979 12 -252 108 -462 288 -636
91 -86 146 -124 254 -175 142 -67 217 -82 395 -82 179 -1 257 16 397 82 257
123 425 319 509 597 25 80 28 104 28 249 1 123 -3 176 -17 230 -27 104 -30
107 -73 63 l-37 -36 14 -64 c22 -100 18 -306 -9 -400 -75 -266 -258 -469 -513
-571 -213 -85 -460 -71 -679 38 -319 160 -507 532 -446 883 59 341 297 597
635 683 89 23 277 26 363 5 l57 -13 41 42 41 42 -58 16 c-118 33 -250 42 -371
26z"/>
<path d="M1520 1474 c-241 -65 -362 -333 -251 -558 36 -73 114 -151 183 -184
200 -94 435 -7 531 196 28 60 32 77 32 159 0 50 -4 95 -8 99 -4 5 -25 -10 -47
-33 -30 -32 -40 -53 -45 -90 -14 -99 -69 -181 -152 -230 -61 -35 -168 -43
-244 -18 -70 24 -149 101 -172 169 -61 179 40 359 223 397 42 8 65 21 98 52
36 36 40 43 25 49 -30 11 -115 8 -173 -8z"/>
</g>
</svg>
