<?xml version="1.0" standalone="no"?>
<!DOCTYPE svg PUBLIC "-//W3C//DTD SVG 20010904//EN"
 "http://www.w3.org/TR/2001/REC-SVG-20010904/DTD/svg10.dtd">
<svg version="1.0" xmlns="http://www.w3.org/2000/svg"
 width="83.072625pt" height="42.330000pt" viewBox="0 0 83.072625 42.330000"
 preserveAspectRatio="xMidYMid meet">
<metadata>
Created by potrace 1.13, written by Peter Selinger 2001-2015
</metadata>
<g transform="translate(0.000000,42.330000) scale(0.026456,-0.026456)"
fill="#000000" stroke="none">
<path d="M1210 1591 c0 -14 61 -62 99 -78 48 -20 137 -108 182 -178 37 -58 38
-61 20 -75 -31 -25 -44 -60 -37 -103 l7 -40 -39 35 c-211 191 -692 387 -992
404 -239 14 -425 -58 -444 -172 -12 -72 19 -140 163 -346 29 -43 44 -78 56
-135 28 -131 44 -170 92 -223 50 -55 116 -94 179 -105 77 -13 75 -12 51 -52
-61 -105 12 -249 165 -321 37 -17 102 -63 150 -105 69 -60 96 -77 138 -87 97
-23 187 7 280 96 57 55 139 164 175 234 12 24 20 30 23 20 14 -47 38 -83 64
-96 47 -24 77 -3 123 91 3 6 7 5 11 -4 23 -50 132 -196 183 -244 93 -89 183
-120 281 -97 41 10 69 28 136 87 49 42 114 87 152 105 152 72 226 217 164 322
-23 39 -25 38 52 51 62 10 129 49 177 103 47 52 68 102 94 225 12 57 27 92 56
135 144 206 175 274 163 346 -24 148 -332 218 -634 146 -175 -42 -400 -127
-546 -206 -83 -45 -234 -147 -259 -174 -27 -30 -33 -25 -28 23 4 36 1 48 -21
74 l-26 30 39 59 c49 74 135 158 182 178 40 17 99 63 99 77 0 14 -50 0 -90
-26 -58 -37 -175 -159 -214 -224 -51 -83 -71 -83 -122 0 -39 65 -156 187 -214
224 -40 26 -90 40 -90 26z m-620 -87 c232 -42 574 -188 760 -325 81 -59 102
-82 95 -102 -5 -12 -19 -5 -70 33 -93 71 -185 123 -334 190 -269 122 -456 172
-651 173 -132 1 -191 -12 -232 -53 -53 -54 -29 -156 64 -271 84 -105 105 -150
116 -252 15 -133 81 -224 198 -272 58 -24 58 -25 23 -25 -72 0 -140 30 -200
90 -49 48 -58 63 -73 125 -45 177 -54 199 -125 297 -166 234 -161 320 24 383
106 36 236 38 405 9z m2315 4 c78 -16 154 -56 176 -92 40 -63 14 -141 -102
-304 -71 -98 -80 -121 -124 -294 -30 -118 -131 -204 -254 -215 l-56 -4 59 25
c118 50 181 137 197 272 13 102 31 143 104 234 118 147 136 257 51 309 -44 28
-156 44 -251 36 -186 -15 -364 -66 -594 -169 -152 -68 -226 -109 -326 -181
-54 -39 -81 -53 -88 -46 -14 14 10 39 93 100 225 167 628 322 890 344 60 5
164 -2 225 -15z m-2325 -93 c124 -19 219 -46 355 -101 240 -99 476 -241 483
-291 2 -13 1 -23 -2 -23 -4 0 -68 31 -144 69 -336 168 -679 280 -902 296 -74
5 -73 4 20 -9 280 -41 579 -142 893 -303 94 -49 127 -71 127 -84 0 -11 -2 -19
-5 -19 -3 0 -65 18 -137 40 -143 44 -359 100 -380 99 -7 0 61 -20 152 -44 242
-64 364 -106 368 -127 3 -14 -4 -18 -30 -19 l-33 -1 30 -7 c21 -4 31 -13 33
-29 3 -22 2 -22 -120 -22 -163 0 -594 -36 -561 -47 6 -2 73 3 150 12 76 8 227
18 336 22 l197 6 0 -25 c0 -29 -28 -39 -155 -59 -102 -15 -223 -43 -365 -84
-69 -20 -154 -43 -189 -50 -63 -14 -64 -14 -123 16 -75 38 -141 99 -166 152
-11 23 -23 75 -26 116 -7 83 -29 140 -81 212 l-35 49 83 2 82 2 -90 5 -90 6
-23 43 c-29 53 -32 124 -5 154 49 55 177 70 353 43z m2281 -10 c60 -31 69 -44
69 -99 0 -34 -8 -64 -23 -91 l-23 -40 -89 -6 -90 -5 83 -2 84 -2 -31 -39 c-50
-63 -80 -139 -87 -221 -3 -41 -15 -94 -26 -117 -25 -53 -91 -114 -166 -152
-59 -30 -60 -30 -123 -16 -35 7 -120 30 -189 50 -142 41 -263 69 -365 84 -127
20 -155 30 -155 59 l0 25 193 -6 c105 -3 238 -11 294 -17 57 -7 108 -10 115
-8 24 8 -226 30 -409 35 l-183 6 0 23 c0 19 6 24 28 25 l27 2 -27 4 c-19 3
-28 10 -28 23 0 16 21 26 113 55 163 51 451 122 612 149 77 14 128 25 113 25
-78 2 -463 -84 -706 -159 -72 -22 -134 -40 -137 -40 -3 0 -5 9 -5 19 0 15 32
36 138 90 310 157 606 257 881 297 94 13 94 13 21 9 -224 -16 -566 -128 -903
-296 -113 -57 -139 -67 -143 -54 -9 22 18 49 111 110 137 91 386 205 552 254
172 51 400 63 474 26z m-1229 -178 c20 -26 22 -50 7 -79 -9 -16 -7 -24 10 -42
31 -33 58 -104 65 -174 6 -52 4 -63 -9 -69 -12 -4 -13 -8 -5 -13 10 -6 9 -39
0 -147 -11 -118 -16 -140 -29 -138 -9 1 -10 0 -3 -2 6 -3 12 -15 12 -28 0 -47
-22 -126 -37 -132 -10 -4 -11 -8 -3 -13 18 -11 -9 -60 -34 -61 -17 -1 -18 -2
-4 -6 26 -7 4 -43 -26 -43 -28 0 -64 35 -44 43 9 4 8 6 -4 6 -9 1 -19 9 -22
19 -7 25 -35 161 -40 197 -2 17 -7 49 -11 73 -6 32 -4 42 6 42 10 1 8 4 -3 11
-12 7 -18 22 -18 49 0 31 4 40 18 41 13 0 14 2 2 6 -25 10 -28 23 -29 117 -1
108 9 149 49 205 24 33 28 45 20 61 -16 31 -12 50 20 82 26 25 36 29 63 24 18
-4 40 -16 49 -29z m-212 -497 c0 -15 -22 -31 -87 -64 -49 -25 -85 -45 -80 -45
4 -1 43 17 86 39 l79 39 5 -25 c4 -21 -10 -35 -124 -119 -70 -52 -182 -130
-248 -172 -153 -100 -164 -107 -131 -92 62 30 292 186 478 327 l32 24 0 -30
c0 -39 -104 -175 -259 -337 l-115 -120 98 95 c54 52 139 146 189 208 73 91 92
110 98 95 15 -42 -78 -210 -166 -299 -73 -74 -138 -107 -209 -107 -59 0 -100
18 -157 70 -33 30 -37 38 -27 52 12 14 11 14 -4 2 -15 -11 -22 -10 -49 13 -17
15 -48 35 -69 46 -70 36 -120 115 -120 190 0 39 9 45 95 67 44 12 139 37 210
57 72 20 201 50 289 66 87 16 161 32 164 35 11 11 22 4 22 -15z m487 -20 c87
-16 217 -46 288 -66 72 -20 166 -45 210 -57 86 -22 95 -28 95 -67 0 -77 -50
-155 -124 -192 -23 -11 -53 -32 -68 -46 -24 -22 -29 -23 -45 -11 -16 13 -17
12 -5 -2 10 -14 6 -22 -27 -52 -57 -52 -98 -70 -157 -70 -123 0 -250 112 -346
305 -23 45 -28 64 -21 83 8 24 12 21 90 -77 45 -57 128 -148 184 -203 l103
-100 -115 120 c-63 66 -147 162 -187 214 -67 87 -84 122 -64 135 5 3 58 -31
118 -76 114 -85 341 -237 384 -257 33 -15 23 -8 -131 91 -65 42 -175 119 -244
169 -108 81 -125 97 -125 121 l0 28 90 -45 c49 -25 93 -45 97 -44 5 0 -36 22
-89 50 -89 45 -110 64 -92 82 4 4 11 4 15 1 5 -3 80 -18 166 -34z m-1293 -189
c-13 -98 39 -187 137 -237 26 -13 78 -51 116 -85 88 -78 135 -103 198 -103
124 0 240 101 350 305 42 79 45 82 45 49 0 -75 -157 -301 -253 -365 -71 -47
-132 -61 -197 -45 -40 10 -66 26 -126 81 -44 40 -103 82 -141 100 -162 77
-224 201 -156 307 15 23 29 42 31 42 1 0 0 -22 -4 -49z m1955 -18 c17 -33 13
-99 -8 -142 -27 -52 -87 -103 -164 -140 -38 -18 -97 -60 -141 -100 -63 -58
-86 -72 -130 -82 -68 -15 -141 5 -211 59 -94 71 -241 291 -228 341 5 19 11 12
45 -51 105 -192 221 -292 343 -292 63 0 110 25 198 103 38 34 90 72 116 85 99
51 150 139 137 239 l-7 51 19 -24 c10 -14 24 -35 31 -47z"/>
<path d="M253 1373 c9 -2 23 -2 30 0 6 3 -1 5 -18 5 -16 0 -22 -2 -12 -5z"/>
<path d="M463 1153 c15 -2 37 -2 50 0 12 2 0 4 -28 4 -27 0 -38 -2 -22 -4z"/>
<path d="M665 1126 c72 -13 148 -27 170 -31 22 -4 38 -5 35 -2 -8 8 -276 57
-308 56 -15 0 32 -11 103 -23z"/>
<path d="M628 963 c18 -2 45 -2 60 0 15 2 0 4 -33 4 -33 0 -45 -2 -27 -4z"/>
<path d="M438 953 c23 -2 61 -2 85 0 23 2 4 4 -43 4 -47 0 -66 -2 -42 -4z"/>
<path d="M798 953 c28 -2 76 -2 105 0 28 2 5 3 -53 3 -58 0 -81 -1 -52 -3z"/>
<path d="M983 943 c15 -2 39 -2 55 0 15 2 2 4 -28 4 -30 0 -43 -2 -27 -4z"/>
<path d="M1115 930 c69 -11 126 -10 65 1 -25 4 -61 7 -80 7 -29 -1 -26 -2 15
-8z"/>
<path d="M1265 909 c51 -10 92 -10 50 1 -16 4 -43 8 -60 8 -25 0 -24 -2 10 -9z"/>
<path d="M620 780 c-27 -6 -29 -8 -10 -8 14 -1 43 3 65 7 33 7 35 9 10 9 -16
-1 -46 -4 -65 -8z"/>
<path d="M491 759 c-24 -5 -47 -11 -50 -15 -6 -6 43 1 109 16 49 11 -2 10 -59
-1z"/>
<path d="M2863 1373 c9 -2 23 -2 30 0 6 3 -1 5 -18 5 -16 0 -22 -2 -12 -5z"/>
<path d="M2633 1153 c15 -2 37 -2 50 0 12 2 0 4 -28 4 -27 0 -38 -2 -22 -4z"/>
<path d="M2458 963 c18 -2 45 -2 60 0 15 2 0 4 -33 4 -33 0 -45 -2 -27 -4z"/>
<path d="M2238 953 c28 -2 76 -2 105 0 28 2 5 3 -53 3 -58 0 -81 -1 -52 -3z"/>
<path d="M2618 953 c23 -2 61 -2 85 0 23 2 4 4 -43 4 -47 0 -66 -2 -42 -4z"/>
<path d="M2103 943 c15 -2 39 -2 55 0 15 2 2 4 -28 4 -30 0 -43 -2 -27 -4z"/>
<path d="M1955 930 c-33 -6 -35 -7 -10 -8 17 0 53 3 80 8 47 7 48 7 10 7 -22
0 -58 -3 -80 -7z"/>
<path d="M1825 910 c-42 -11 -1 -11 50 -1 34 7 35 9 10 9 -16 0 -43 -4 -60 -8z"/>
<path d="M2368 793 c12 -2 30 -2 40 0 9 3 -1 5 -23 4 -22 0 -30 -2 -17 -4z"/>
<path d="M2465 779 c22 -4 51 -8 65 -7 16 0 11 3 -15 9 -22 4 -51 8 -65 7 -16
0 -11 -3 15 -9z"/>
<path d="M2590 761 c58 -14 118 -22 95 -12 -11 5 -45 11 -75 14 -42 5 -46 4
-20 -2z"/>
<path d="M1527 873 c18 -2 50 -2 70 0 21 2 7 4 -32 4 -38 0 -55 -2 -38 -4z"/>
<path d="M1458 863 c7 -3 16 -2 19 1 4 3 -2 6 -13 5 -11 0 -14 -3 -6 -6z"/>
<path d="M1658 863 c7 -3 16 -2 19 1 4 3 -2 6 -13 5 -11 0 -14 -3 -6 -6z"/>
<path d="M1517 773 c18 -2 50 -2 70 0 21 2 7 4 -32 4 -38 0 -55 -2 -38 -4z"/>
<path d="M1658 763 c7 -3 16 -2 19 1 4 3 -2 6 -13 5 -11 0 -14 -3 -6 -6z"/>
<path d="M1523 673 c20 -2 54 -2 75 0 20 2 3 4 -38 4 -41 0 -58 -2 -37 -4z"/>
<path d="M1658 663 c7 -3 16 -2 19 1 4 3 -2 6 -13 5 -11 0 -14 -3 -6 -6z"/>
<path d="M1488 573 c7 -3 16 -2 19 1 4 3 -2 6 -13 5 -11 0 -14 -3 -6 -6z"/>
<path d="M1608 573 c6 -2 18 -2 25 0 6 3 1 5 -13 5 -14 0 -19 -2 -12 -5z"/>
<path d="M1498 483 c7 -3 16 -2 19 1 4 3 -2 6 -13 5 -11 0 -14 -3 -6 -6z"/>
<path d="M1598 483 c6 -2 18 -2 25 0 6 3 1 5 -13 5 -14 0 -19 -2 -12 -5z"/>
<path d="M1543 403 c15 -2 37 -2 50 0 12 2 0 4 -28 4 -27 0 -38 -2 -22 -4z"/>
<path d="M1170 590 c-19 -11 -30 -19 -25 -19 6 0 26 8 45 19 19 11 31 19 25
19 -5 0 -26 -8 -45 -19z"/>
<path d="M1055 540 c-33 -16 -55 -29 -50 -29 6 0 37 13 70 29 33 15 56 28 50
28 -5 0 -37 -12 -70 -28z"/>
<path d="M960 500 c-8 -5 -10 -10 -5 -10 6 0 17 5 25 10 8 5 11 10 5 10 -5 0
-17 -5 -25 -10z"/>
<path d="M895 475 c-25 -12 -26 -14 -5 -9 28 7 60 23 45 23 -5 0 -23 -6 -40
-14z"/>
<path d="M815 445 c-25 -12 -26 -14 -5 -9 28 7 60 23 45 23 -5 0 -23 -6 -40
-14z"/>
<path d="M1950 590 c19 -11 40 -19 45 -19 6 0 -6 8 -25 19 -19 11 -39 19 -45
19 -5 0 6 -8 25 -19z"/>
<path d="M2065 540 c33 -16 65 -29 70 -29 13 1 -107 57 -120 57 -5 0 17 -13
50 -28z"/>
<path d="M2160 500 c8 -5 20 -10 25 -10 6 0 3 5 -5 10 -8 5 -19 10 -25 10 -5
0 -3 -5 5 -10z"/>
<path d="M2210 482 c8 -5 26 -13 40 -16 17 -5 20 -4 10 2 -8 5 -26 13 -40 16
-17 5 -20 4 -10 -2z"/>
<path d="M2290 452 c8 -5 26 -13 40 -16 17 -5 20 -4 10 2 -8 5 -26 13 -40 16
-17 5 -20 4 -10 -2z"/>
</g>
</svg>
