<?xml version="1.0" standalone="no"?>
<!DOCTYPE svg PUBLIC "-//W3C//DTD SVG 20010904//EN"
 "http://www.w3.org/TR/2001/REC-SVG-20010904/DTD/svg10.dtd">
<svg version="1.0" xmlns="http://www.w3.org/2000/svg"
 width="362.681298pt" height="203.730000pt" viewBox="0 0 362.681298 203.730000"
 preserveAspectRatio="xMidYMid meet">
<metadata>
Created by potrace 1.13, written by Peter Selinger 2001-2015
</metadata>
<g transform="translate(0.000000,203.730000) scale(0.026186,-0.026186)"
fill="#000000" stroke="none">
<path d="M3948 7544 c-58 -31 -77 -122 -35 -162 29 -27 61 -28 87 -2 25 25 27
49 2 27 -51 -47 -121 16 -90 80 21 44 58 51 118 23 43 -20 56 -22 80 -13 28
11 28 10 18 -16 -6 -16 -7 -75 -3 -158 5 -111 4 -137 -10 -166 -31 -66 -103
-76 -141 -20 -18 27 -24 30 -38 20 -15 -11 -15 -14 -1 -34 19 -26 83 -48 117
-40 62 16 117 95 118 169 0 28 5 38 21 43 27 9 33 0 64 -102 28 -90 55 -120
99 -109 27 7 102 79 111 107 4 12 15 19 31 19 24 0 24 -1 10 -22 -9 -12 -16
-39 -16 -60 0 -69 63 -58 118 22 l22 33 0 -40 c0 -71 46 -79 88 -15 l17 26 5
-34 c3 -21 11 -36 20 -38 19 -3 85 45 99 73 7 14 10 -17 10 -111 1 -105 -2
-134 -14 -144 -20 -17 -45 -5 -45 22 0 21 -1 22 -17 5 -17 -17 -17 -19 1 -33
27 -19 49 -18 79 6 31 24 38 60 38 192 0 107 7 128 43 128 32 0 46 -19 46 -60
0 -39 -19 -64 -55 -73 -18 -4 -17 -5 3 -6 14 -1 36 11 53 28 68 68 7 179 -69
125 -12 -8 -22 -10 -22 -5 0 6 -8 11 -18 11 -13 0 -22 -12 -30 -37 -14 -48
-64 -109 -80 -99 -7 4 -12 33 -12 72 0 48 -3 65 -12 62 -7 -3 -15 -20 -19 -40
-6 -41 -46 -101 -63 -95 -6 2 -12 31 -14 70 -2 37 -7 67 -13 67 -5 0 -18 -19
-29 -42 -27 -60 -64 -102 -84 -95 -22 9 -20 59 3 105 l19 37 -43 0 c-39 0 -44
-2 -54 -32 -14 -38 -78 -103 -102 -103 -23 0 -35 17 -69 100 -17 41 -37 82
-46 91 -14 15 -13 22 9 65 14 27 37 75 52 106 32 69 66 86 97 48 15 -19 20
-20 34 -9 15 12 14 15 -6 31 -48 39 -116 7 -146 -68 -44 -111 -68 -149 -94
-149 -21 0 -26 7 -39 59 -14 59 -11 87 14 151 8 19 6 18 -17 -2 -31 -29 -43
-28 -93 2 -46 28 -69 30 -107 9z"/>
<path d="M6317 7546 c-89 -32 -149 -110 -149 -193 0 -51 30 -93 67 -93 24 0
65 26 65 43 0 8 -3 8 -12 -1 -17 -17 -52 -15 -71 6 -36 40 -30 110 15 168 28
35 93 64 147 64 36 0 49 -6 77 -34 30 -30 34 -40 34 -86 0 -44 -4 -56 -29 -81
-16 -16 -24 -29 -17 -29 18 0 66 49 77 78 45 117 -70 205 -204 158z"/>
<path d="M1125 7532 c-80 -37 -135 -132 -120 -208 6 -36 46 -74 77 -74 34 0
83 29 101 59 31 53 15 131 -27 131 -18 0 -36 -22 -36 -44 0 -20 0 -20 14 0 12
15 18 17 33 8 47 -29 2 -124 -58 -124 -45 0 -79 39 -79 90 0 114 113 186 200
128 82 -54 107 -200 54 -307 -49 -98 -151 -124 -191 -48 -9 17 -10 17 -27 -2
-17 -19 -17 -20 7 -36 122 -79 267 53 267 244 0 43 6 63 26 93 23 32 29 36 46
27 11 -6 31 -8 44 -5 22 6 22 4 -18 -79 -66 -138 -64 -256 5 -291 44 -23 88
-11 131 36 l36 40 0 -40 c0 -27 5 -43 15 -46 21 -9 61 20 93 66 15 22 30 39
35 40 4 0 7 -23 7 -50 0 -37 4 -52 16 -57 25 -9 61 16 94 66 l30 46 0 -53 c0
-65 22 -68 30 -5 7 51 36 95 58 91 13 -3 18 -18 22 -73 7 -92 24 -97 91 -25
l48 51 3 -48 c4 -61 26 -68 68 -23 l30 32 0 -114 c0 -120 -6 -138 -45 -138
-27 0 -45 18 -45 44 0 19 -1 20 -17 3 -17 -17 -17 -19 2 -33 32 -24 66 -28 94
-13 36 21 51 55 51 122 0 53 3 60 40 97 31 31 40 36 40 22 0 -24 31 -52 56
-52 11 0 30 7 42 16 20 14 23 14 28 0 15 -40 73 -1 121 82 25 42 26 42 45 25
29 -26 39 -59 28 -88 -6 -15 -6 -26 1 -30 5 -4 9 -3 8 2 -1 4 3 21 10 37 14
35 3 73 -33 117 l-25 29 -36 -69 c-39 -75 -67 -107 -84 -96 -6 3 -11 38 -11
78 l0 72 -40 3 c-46 3 -81 -24 -133 -102 -49 -75 -57 -71 -57 24 0 78 -1 80
-20 70 -14 -8 -20 -21 -20 -47 0 -36 -40 -103 -61 -103 -5 0 -9 36 -9 80 0 76
-1 80 -19 69 -10 -7 -24 -28 -31 -48 -16 -46 -58 -101 -76 -101 -10 0 -14 16
-14 63 0 90 -23 108 -79 61 l-31 -26 0 24 c0 13 18 59 40 103 56 111 55 175
-3 175 -6 0 -3 -6 8 -13 24 -18 17 -82 -16 -152 l-24 -50 -3 74 c-2 41 2 88 8
105 l11 31 -23 -23 c-21 -20 -24 -35 -28 -140 -5 -119 -10 -137 -57 -199 -40
-55 -53 -44 -53 45 0 69 3 82 30 122 16 24 27 47 24 49 -3 3 -9 -1 -14 -9 -5
-8 -16 -24 -24 -35 -14 -19 -15 -16 -16 38 0 42 -3 58 -12 55 -8 -3 -15 -33
-18 -84 -4 -66 -11 -89 -38 -135 -58 -102 -82 -103 -82 -3 0 35 -4 64 -9 64
-5 0 -22 -26 -38 -57 -32 -64 -66 -90 -106 -79 -44 11 -60 56 -55 155 4 75 9
96 44 166 50 103 50 103 27 83 -24 -22 -56 -23 -73 -3 -18 22 -22 20 -55 -30
-16 -24 -32 -45 -35 -45 -3 0 -14 17 -25 37 -40 74 -116 100 -190 65z m1363
-340 c2 -31 -2 -60 -9 -68 -31 -37 -88 10 -74 63 9 38 35 64 59 61 18 -3 21
-11 24 -56z"/>
<path d="M6389 7473 c-22 -35 -24 -47 -21 -158 2 -129 -7 -176 -41 -200 -45
-32 -107 -7 -107 42 0 16 -5 20 -20 16 -49 -13 2 -81 67 -89 53 -7 99 23 125
83 18 41 20 57 13 137 -10 110 -8 151 6 178 20 37 2 30 -22 -9z"/>
<path d="M2885 7487 c24 -18 17 -82 -16 -152 l-24 -50 -3 74 c-2 41 2 88 8
105 l11 31 -23 -23 c-21 -20 -24 -35 -28 -140 -6 -126 -14 -152 -68 -210 -17
-18 -27 -32 -23 -32 9 0 52 46 74 80 17 24 17 24 17 -29 0 -64 22 -67 30 -4 7
51 36 95 58 91 13 -3 18 -18 22 -73 4 -54 9 -71 22 -73 21 -4 79 47 103 92 14
26 26 36 43 36 22 0 22 -1 8 -22 -21 -30 -21 -94 0 -102 26 -10 32 -7 74 30
36 32 40 34 40 15 0 -11 11 -28 25 -37 34 -22 81 -12 122 28 31 30 33 30 33
10 0 -31 43 -56 82 -48 31 6 78 41 78 57 0 5 -12 -3 -26 -16 -31 -28 -66 -32
-84 -10 -11 13 -7 21 24 48 40 36 50 73 24 90 -23 15 -63 -14 -104 -77 -50
-74 -95 -96 -125 -60 -11 13 -8 19 20 41 54 42 62 103 14 103 -18 0 -75 -58
-118 -119 -16 -23 -36 -40 -45 -39 -23 5 -24 61 -2 105 l20 38 -43 0 c-39 0
-44 -2 -54 -30 -15 -43 -70 -115 -87 -115 -11 0 -14 15 -14 63 0 90 -23 108
-79 61 l-31 -26 0 24 c0 13 18 59 40 103 56 111 55 175 -3 175 -6 0 -3 -6 8
-13z m413 -273 c2 -14 -7 -30 -25 -44 l-28 -22 -3 32 c-4 35 13 62 37 58 9 -2
17 -13 19 -24z m180 0 c2 -14 -7 -30 -25 -44 l-28 -22 -3 32 c-4 35 13 62 37
58 9 -2 17 -13 19 -24z"/>
<path d="M5650 7489 c-74 -31 -96 -105 -40 -137 35 -20 37 -28 10 -37 -36 -11
-60 -54 -60 -107 0 -43 5 -55 33 -83 59 -59 132 -59 192 1 29 29 35 42 35 79
0 24 -4 47 -10 50 -22 14 -8 24 32 22 35 -2 43 1 46 18 3 15 1 17 -9 8 -8 -6
-46 -13 -86 -15 -85 -4 -113 -23 -113 -74 0 -37 30 -55 55 -34 21 18 18 27 -7
26 -26 -1 -36 27 -18 49 30 36 90 1 90 -53 0 -78 -79 -124 -150 -87 -38 20
-50 43 -50 99 0 54 33 99 87 118 l37 13 -39 5 c-49 6 -79 44 -69 84 10 43 44
53 108 33 66 -21 79 -21 105 1 22 17 22 17 -21 18 -24 0 -63 3 -88 7 -25 4
-56 2 -70 -4z"/>
<path d="M7335 7487 c24 -18 17 -82 -16 -152 l-24 -50 -3 74 c-2 41 2 88 8
105 l11 31 -23 -23 c-21 -20 -24 -35 -28 -140 -5 -119 -10 -137 -57 -199 -40
-55 -53 -44 -53 45 0 69 3 82 30 122 16 24 27 47 24 49 -3 3 -9 -1 -14 -9 -5
-8 -16 -24 -24 -35 -14 -19 -15 -16 -16 38 0 42 -3 58 -12 55 -8 -3 -15 -33
-18 -84 -4 -66 -11 -89 -38 -135 -58 -102 -82 -103 -82 -3 0 73 -13 83 -36 27
-9 -21 -32 -55 -52 -77 -25 -25 -30 -35 -16 -27 12 6 34 24 48 42 l26 31 0
-42 c0 -27 5 -43 15 -46 21 -9 61 20 93 66 15 22 30 39 35 40 4 0 7 -23 7 -50
0 -37 4 -52 16 -57 25 -9 61 16 94 66 l30 46 0 -53 c0 -65 22 -68 30 -5 7 51
36 95 58 91 13 -3 18 -18 22 -73 4 -54 9 -71 22 -73 21 -4 79 47 103 92 14 26
26 36 43 36 22 0 22 -1 8 -22 -21 -30 -21 -94 0 -102 26 -10 32 -7 74 30 34
31 40 33 40 17 0 -25 30 -53 56 -53 11 0 30 7 42 16 20 14 23 14 28 0 3 -9 14
-16 24 -16 18 0 70 46 70 62 0 5 -11 -3 -23 -18 -35 -40 -47 -24 -47 59 l0 72
-39 3 c-47 3 -76 -18 -132 -99 -26 -37 -48 -59 -58 -57 -24 5 -25 61 -3 105
l20 38 -43 0 c-39 0 -44 -2 -54 -30 -15 -43 -70 -115 -87 -115 -11 0 -14 15
-14 63 0 90 -23 108 -79 61 l-31 -26 0 24 c0 13 18 59 40 103 56 111 55 175
-3 175 -6 0 -3 -6 8 -13z m443 -295 c2 -31 -2 -60 -9 -68 -31 -37 -88 10 -74
63 9 38 35 64 59 61 18 -3 21 -11 24 -56z"/>
<path d="M1614 7329 c-10 -17 13 -36 27 -22 12 12 4 33 -11 33 -5 0 -12 -5
-16 -11z"/>
<path d="M6974 7329 c-10 -17 13 -36 27 -22 12 12 4 33 -11 33 -5 0 -12 -5
-16 -11z"/>
<path d="M6830 7305 c0 -9 9 -15 23 -15 13 0 28 -5 35 -12 19 -19 14 -79 -9
-117 l-21 -34 -29 51 c-16 28 -29 56 -29 63 0 6 -14 -15 -31 -47 -35 -68 -62
-99 -78 -90 -6 4 -11 38 -11 79 l0 72 -39 3 c-32 2 -46 -3 -73 -27 -18 -16
-42 -44 -52 -62 -17 -28 -17 -32 -3 -26 12 4 17 1 17 -12 0 -23 31 -51 56 -51
11 0 30 7 42 16 20 14 23 14 28 0 14 -37 62 -10 103 58 13 20 26 34 31 31 5
-3 16 -26 26 -50 l17 -46 24 23 c37 34 53 72 53 123 0 32 -6 51 -20 65 -24 24
-60 27 -60 5z m-182 -113 c2 -31 -2 -60 -9 -68 -31 -37 -88 10 -74 63 9 38 35
64 59 61 18 -3 21 -11 24 -56z"/>
<path d="M5141 7234 c-17 -14 -43 -46 -57 -70 -14 -24 -37 -53 -51 -64 -14
-11 -20 -20 -13 -20 7 0 28 16 46 36 28 29 34 32 34 16 0 -24 30 -52 56 -52
11 0 30 7 42 16 20 14 23 14 28 0 3 -9 14 -16 24 -16 18 0 70 46 70 62 0 5
-11 -3 -23 -18 -35 -40 -47 -24 -47 59 l0 72 -39 3 c-30 2 -46 -4 -70 -24z
m77 -42 c2 -31 -2 -60 -9 -68 -31 -37 -88 10 -74 63 9 38 35 64 59 61 18 -3
21 -11 24 -56z"/>
<path d="M670 7170 c0 -5 23 -10 50 -10 28 0 50 5 50 10 0 6 -22 10 -50 10
-27 0 -50 -4 -50 -10z"/>
<path d="M3591 7126 c-9 -10 -10 -20 -3 -32 7 -13 5 -25 -6 -42 -12 -19 -13
-24 -3 -21 8 3 23 21 35 42 19 33 20 38 5 52 -14 14 -17 14 -28 1z"/>
<path d="M2600 7115 c0 -17 31 -35 57 -34 14 0 14 2 -5 9 -12 5 -25 16 -28 25
-8 19 -24 20 -24 0z"/>
</g>
</svg>
