<?xml version="1.0" standalone="no"?>
<!DOCTYPE svg PUBLIC "-//W3C//DTD SVG 20010904//EN"
 "http://www.w3.org/TR/2001/REC-SVG-20010904/DTD/svg10.dtd">
<svg version="1.0" xmlns="http://www.w3.org/2000/svg"
 width="26.726989pt" height="24.610000pt" viewBox="0 0 26.726989 24.610000"
 preserveAspectRatio="xMidYMid meet">
<metadata>
Created by potrace 1.13, written by Peter Selinger 2001-2015
</metadata>
<g transform="translate(0.000000,24.610000) scale(0.026462,-0.026462)"
fill="#000000" stroke="none">
<path d="M450 677 l-46 -142 -159 -5 -160 -5 128 -93 c70 -52 127 -94 127 -96
0 -1 -22 -68 -49 -149 -27 -81 -48 -147 -45 -147 2 0 60 41 129 91 80 58 129
88 137 83 7 -5 64 -46 126 -92 63 -46 116 -82 118 -79 2 2 -2 19 -10 38 -8 19
-30 85 -49 147 l-35 112 128 93 129 92 -161 5 -161 5 -45 143 c-25 78 -48 142
-51 142 -3 0 -26 -64 -51 -143z m256 -179 l125 -3 -95 -68 c-53 -38 -98 -72
-101 -76 -2 -5 13 -61 35 -125 21 -64 37 -116 34 -116 -2 0 -47 31 -99 70 -52
39 -99 70 -105 70 -6 0 -52 -31 -104 -70 -51 -38 -95 -70 -99 -70 -3 0 13 55
35 121 25 75 37 124 31 128 -6 3 -52 35 -103 71 l-92 65 128 5 128 5 31 101
c17 55 35 109 39 120 5 14 18 -14 47 -103 l40 -122 125 -3z"/>
</g>
</svg>
